<svg xmlns="http://www.w3.org/2000/svg" width="90" height="90" viewBox="0 0 90 90">
    <g fill="none" fill-rule="evenodd">
        <path fill="#FBC5A8" d="M73.766 40.329c-2.498.63-6.568-.557-8.081-1.052-1.013-1.702-2.333-3.259-3.912-4.633.162-1.628.831-5.343 3.6-8.193 0 0-5.886.04-9.657 4.379-3.382-1.48-7.265-2.328-11.402-2.328-13.057 0-23.643 8.4-23.643 18.761 0 4.285 1.831 8.22 4.877 11.38-.042 2.615.546 5.13 1.833 7.183l3.288 5.247h7.282l-2.154-5.247a9.137 9.137 0 0 1-.37-1.184 28.974 28.974 0 0 0 8.887 1.382 29.55 29.55 0 0 0 5.76-.564c.206.395.427.774.674 1.122l3.194 4.491h6.663l-1.616-4.49c-.455-1.263-.559-2.76-.343-4.42 3.696-2.249 6.541-5.336 8.06-8.912l4.8-.693a3.29 3.29 0 0 0 2.761-2.606c.73-3.612 1.768-10.197-.501-9.623"/>
        <path fill="#F66F26" fill-rule="nonzero" d="M73.656 39.892c.793-.2 1.38.214 1.672 1.04.222.625.3 1.516.263 2.654-.059 1.766-.39 4.02-.883 6.455a3.74 3.74 0 0 1-3.139 2.962l-4.55.657c-1.537 3.47-4.309 6.512-7.953 8.772-.174 1.527-.058 2.875.346 3.998l1.617 4.491a.45.45 0 0 1-.424.602h-6.663a.45.45 0 0 1-.367-.189l-3.193-4.49a9.194 9.194 0 0 1-.547-.88 30.02 30.02 0 0 1-5.52.51c-2.83 0-5.6-.397-8.228-1.16.04.122.081.232.126.342l2.155 5.247a.45.45 0 0 1-.417.62H30.67a.45.45 0 0 1-.38-.21l-3.29-5.248c-1.273-2.03-1.916-4.54-1.903-7.244-3.141-3.316-4.875-7.33-4.875-11.558 0-10.636 10.807-19.211 24.093-19.211 3.985 0 7.831.776 11.283 2.237.92-1 1.993-1.819 3.19-2.472a15.24 15.24 0 0 1 4.512-1.58c.538-.1 1.038-.166 1.488-.203A8.23 8.23 0 0 1 65.37 26a.45.45 0 0 1 .326.764c-2.102 2.163-3.138 4.953-3.45 7.695 1.499 1.333 2.756 2.825 3.739 4.441 2.908.937 5.82 1.459 7.672.991zm-15.09 26.843c-.476-1.32-.594-2.883-.366-4.63a.45.45 0 0 1 .212-.327c3.663-2.228 6.417-5.258 7.88-8.703a.45.45 0 0 1 .35-.27l4.799-.693a2.84 2.84 0 0 0 2.385-2.249c.483-2.39.809-4.602.865-6.307.035-1.034-.035-1.828-.211-2.323-.151-.426-.314-.541-.604-.468-2.11.533-5.207-.038-8.331-1.06a.45.45 0 0 1-.247-.198c-.982-1.651-2.269-3.173-3.82-4.523a.45.45 0 0 1-.153-.384c.264-2.654 1.156-5.362 2.969-7.609-.263.034-.54.077-.83.131-1.45.27-2.898.75-4.247 1.485a11.36 11.36 0 0 0-3.16 2.518.45.45 0 0 1-.521.117c-3.414-1.494-7.245-2.29-11.222-2.29-12.828 0-23.193 8.224-23.193 18.311 0 4.041 1.685 7.887 4.75 11.067a.45.45 0 0 1 .127.32c-.042 2.608.56 5.015 1.764 6.937l3.157 5.036h6.361l-1.9-4.626c-.143-.349-.243-.682-.388-1.242a.45.45 0 0 1 .574-.541 28.523 28.523 0 0 0 8.748 1.36c1.925 0 3.824-.188 5.673-.555a.45.45 0 0 1 .486.233c.216.414.424.763.642 1.07l3.059 4.301h5.791l-1.4-3.888z"/>
        <path fill="#FBC5A8" fill-rule="nonzero" d="M49.75 18.26v-5.518a.45.45 0 0 0-.9 0v5.517a.45.45 0 0 0 .9 0zM40.934 18.264v-5.756a.45.45 0 0 0-.9 0v5.756a.45.45 0 0 0 .9 0zM45.348 17.431v-7.98a.45.45 0 0 0-.9 0v7.98a.45.45 0 0 0 .9 0z"/>
        <path fill="#FFF" d="M62.48 41.368c0 .995-.813 1.807-1.808 1.807a1.811 1.811 0 0 1-1.806-1.807 1.81 1.81 0 0 1 1.806-1.806 1.81 1.81 0 0 1 1.807 1.806"/>
        <path fill="#F66F26" fill-rule="nonzero" d="M62.03 41.368a1.36 1.36 0 0 0-1.358-1.356 1.36 1.36 0 0 0-1.356 1.356c0 .746.61 1.357 1.356 1.357.746 0 1.357-.61 1.357-1.357zm.9 0a2.261 2.261 0 0 1-2.258 2.257 2.261 2.261 0 0 1-2.256-2.257 2.26 2.26 0 0 1 2.256-2.256 2.26 2.26 0 0 1 2.257 2.256zM52.95 35.003v.053a.499.499 0 0 1-.5.499H37.345a.499.499 0 0 1-.5-.499v-.053a.45.45 0 0 0-.9 0v.053c0 .773.627 1.399 1.4 1.399H52.45c.773 0 1.4-.626 1.4-1.399v-.053a.45.45 0 0 0-.9 0z"/>
        <path fill="#FFF" d="M40.483 36.005h8.83c2.246-1.452 3.739-3.966 3.739-6.84a8.154 8.154 0 0 0-16.308 0c0 2.874 1.494 5.388 3.74 6.84"/>
        <path fill="#F66F26" fill-rule="nonzero" d="M40.35 36.455l-.111-.072a8.582 8.582 0 0 1-3.945-7.219 8.604 8.604 0 0 1 17.208 0 8.581 8.581 0 0 1-3.945 7.219l-.111.072H40.35zm8.828-.9a7.679 7.679 0 0 0 3.424-6.39 7.704 7.704 0 0 0-15.408 0 7.68 7.68 0 0 0 3.424 6.39h8.56z"/>
        <path fill="#F66F26" fill-rule="nonzero" d="M44.81 26.591v5.496a.45.45 0 1 0 .9 0V25.87a.45.45 0 0 0-.647-.404l-2.303 1.122a.45.45 0 0 0 .394.81l1.656-.808zM18.86 32.212c.31-.363.493-.755.514-1.129.023-.382-.149-.754-.422-.919a1.087 1.087 0 0 0-.383-.13c-.827-.134-1.755.421-2.213 1.29-.287.547-.42 1.196-.418 1.94 1.067.148 2.224-.233 2.923-1.052zm-2.922 1.052a7.417 7.417 0 0 0 .074 1.01 10.426 10.426 0 0 0 2.94 5.911c.829.825 1.64 1.307 2.462 1.383a.45.45 0 0 1-.083.896c-1.069-.099-2.05-.682-3.013-1.641a11.326 11.326 0 0 1-3.245-6.842 7.601 7.601 0 0 1-.031-.983c.028-.773.192-1.473.518-2.092.626-1.191 1.915-1.961 3.155-1.76.259.044.493.123.7.247.578.347.899 1.044.858 1.743-.034.588-.3 1.158-.727 1.66-.863 1.011-2.237 1.504-3.547 1.381a4.048 4.048 0 0 1-.926-.196 3.758 3.758 0 0 1-.713-.328c-.72-.428-1.171-.912-2.036-2.039l-.036-.045a22.44 22.44 0 0 0-.486-.619.45.45 0 1 1 .696-.571c.145.177.266.332.504.641l.035.046c.797 1.037 1.194 1.463 1.783 1.814a3.04 3.04 0 0 0 1.118.385zM62.396 51.494c.16.293.476.708.973 1.12.876.726 1.994 1.141 3.355 1.086a.45.45 0 0 0-.036-.899c-1.129.046-2.033-.29-2.745-.88a3.74 3.74 0 0 1-.586-.607 2.21 2.21 0 0 1-.17-.25.45.45 0 0 0-.791.43z"/>
    </g>
</svg>
