<svg xmlns="http://www.w3.org/2000/svg" width="90" height="90" viewBox="0 0 90 90">
    <g fill="none" fill-rule="evenodd">
        <path fill="#FBC5A8" d="M25.107 44.39c.143-5.088-.034-10.224 0-15.265.003-.489 2.503-.143 2.735.288.506.937.143 2.142.43 3.168.214.764 1.354 1.46.861 2.449-.257.517-.238 1.798 0 1.849 1.5.32 2.201 1.115 3.586.455 3.415-1.628 2.801-5.409 5.737-6.48.494-.181 1.088-.192 1.577 0 1.277.498 2.249 1.714 3.585 2.015 1.129.255 2.536.289 3.443-.432 1.363-1.082 1.527-3.199 2.724-4.464.693-.732 2.031-.567 2.726-1.297.473-.496.167-1.381.43-2.016.224-.54.591-1.026 1.004-1.44 1.125-1.13 2.278-2.256 3.585-3.169 1.53-1.067 3.143-2.053 4.876-2.736.759-.299 1.629-.223 2.44-.144 1.166.114 2.333.338 3.441.72 3.813 1.313 5.315 15.405 3.586 16.275-1.396.701-2.009-1.729-3.586 0-1.946 2.131-.868 7.853 3.586 5.617 1.002-.504 0-3.457 3.442-1.729 1.135.57-1.478 3.855-1.579 4.177-.287.92.26 2.087-.287 2.88-.854 1.24-2.826 1.453-3.585 2.737-2.725 4.609-4.877 7.447-7.458 10.225-3.123 3.364-7.673 7.985-10.756 8.642-4.733 1.008-3.442 1.008-7.018 1.872-2.368.573-6.08-.095-8.615.72-.612.196-2.652.694-3.298.72-3.585.145-1.434-.287-4.877 1.585-1.644.894-2.921.091-4.015-.865-2.557-2.232-2.439.72-3.012-.72-.574-1.44.697-.511 0-3.312-.19-.764-1.635-.688-1.865-1.441l-.573-1.152c-.572-1.865 2.58-.645 1.864-3.456-1.565-6.14-6.597-11.09-6.74-15.555-.03-.93 1.906-2.456 2.725-2.016.886.477.673 1.94 1.29 2.736 1.746 2.255 3.604.9 5.45-.144l2.14-1.296z"/>
        <path fill="#F66F26" fill-rule="nonzero" d="M25.57 35.163a500.7 500.7 0 0 1 .03 4.127c.004 1.907-.012 3.548-.056 5.113l-.007.238-.204.124-2.152 1.303-.437.25c-2.708 1.565-4.071 1.72-5.574-.219-.26-.335-.383-.677-.547-1.344-.21-.858-.334-1.13-.604-1.275-.479-.257-2.102.976-2.082 1.617.065 2.015.511 2.953 3.542 8.274 1.69 2.967 2.618 4.96 3.186 7.187.365 1.434-.067 2.127-1.162 2.607l-.216.093c-.56.24-.62.317-.519.67l.6 1.218c.04.131.196.234.676.432.767.316 1.067.517 1.195 1.031.326 1.308.292 1.965-.01 2.513l-.088.151c-.068.125-.07.21.066.557.716-.632 1.608-.546 2.907.588 1.331 1.162 2.306 1.47 3.52.81 1.088-.592 2.337-1.423 2.423-1.459.226-.095.428-.122.86-.133l.696-.013c.356-.007.697-.017 1.088-.033.512-.02 2.431-.458 3.182-.7 1.075-.345 2.266-.454 4.197-.47l.716-.002c2.038-.005 2.879-.05 3.734-.256 1.3-.314 1.815-.465 2.814-.798 1.122-.372 2.036-.613 4.215-1.077 2.434-.518 5.865-3.491 10.527-8.511 2.713-2.921 4.824-5.791 7.402-10.15.38-.643.848-.976 1.972-1.573.964-.512 1.34-.772 1.63-1.19.18-.263.205-.555.15-1.317-.05-.716-.04-1.067.08-1.446.044-.143.844-1.341.975-1.552.142-.228.268-.441.378-.644.474-.87.576-1.394.445-1.459-.94-.472-1.508-.573-1.797-.436-.186.087-.3.295-.443.797-.242.852-.392 1.158-.81 1.367-2.242 1.126-4.024.474-4.793-1.395-.658-1.6-.383-3.733.689-4.907.895-.98 1.584-.974 2.576-.365.611.376.814.43 1.136.269.205-.103.426-.992.465-2.347.043-1.455-.105-3.315-.414-5.161-.712-4.248-2.08-7.445-3.582-7.963-1.021-.351-2.139-.58-3.342-.698-1.135-.111-1.69-.1-2.236.116-1.528.601-3.037 1.467-4.787 2.688-1.085.757-2.002 1.589-3.526 3.118-.413.415-.724.853-.91 1.3-.06.147-.083.322-.094.67-.025.806-.092 1.133-.422 1.48-.364.381-.723.533-1.56.766-.687.191-.95.303-1.165.53-.406.428-.655.887-1.112 1.935-.627 1.438-.97 2.025-1.658 2.57-.928.738-2.323.852-3.81.517-.687-.155-1.177-.435-2.127-1.114-.767-.549-1.098-.756-1.522-.922a1.863 1.863 0 0 0-1.268.004c-1.029.376-1.54 1.003-2.327 2.575-.169.34-.256.513-.346.688-.825 1.597-1.626 2.535-3.026 3.202-.678.323-1.265.37-1.921.203a5.52 5.52 0 0 1-.514-.162c-.098-.035-.443-.164-.503-.186a6.604 6.604 0 0 0-.927-.277c-.653-.14-.663-1.744-.3-2.472.165-.333.08-.583-.35-1.179a6.724 6.724 0 0 1-.29-.42 2.05 2.05 0 0 1-.25-.537c-.112-.396-.14-.754-.147-1.404-.008-.959-.052-1.313-.248-1.675-.01-.018-.562-.194-1.121-.262a3.482 3.482 0 0 0-.78-.021c-.023 1.572-.015 2.919.014 5.826zm-.844 4.13c-.003-1.146-.01-2.069-.03-4.121a336.49 336.49 0 0 1-.027-6.05c.005-.673.71-.76 1.772-.632.871.106 1.58.332 1.786.715.287.532.344.98.352 1.991.006.667.03.967.115 1.267.024.086.072.186.15.31a6.2 6.2 0 0 0 .258.372c.605.84.782 1.357.422 2.08-.083.168-.142.537-.14.902.001.143.011.272.028.367.275.068.539.152.857.268.066.024.407.152.499.185.172.062.307.105.433.137.464.118.842.088 1.33-.145 1.195-.57 1.88-1.37 2.625-2.813.087-.17.172-.338.341-.679.88-1.756 1.51-2.53 2.81-3.005.602-.22 1.304-.223 1.886.004.513.2.886.434 1.659.986.91.651 1.328.89 1.863 1.01 1.255.284 2.398.19 3.074-.347.536-.425.83-.929 1.376-2.18.521-1.196.804-1.715 1.303-2.243.363-.384.723-.536 1.564-.77.684-.19.948-.302 1.162-.527.126-.132.163-.318.18-.839.016-.516.049-.768.163-1.043.233-.562.61-1.091 1.098-1.582 1.558-1.564 2.505-2.423 3.645-3.218 1.8-1.257 3.366-2.155 4.966-2.785.72-.283 1.37-.297 2.642-.172 1.268.124 2.452.367 3.541.742 3.7 1.273 6.137 15.822 3.64 17.078-.678.341-1.14.217-1.93-.27-.727-.446-.96-.449-1.53.174-.832.912-1.06 2.685-.525 3.986.574 1.395 1.802 1.845 3.592.946.107-.054.19-.222.323-.694.249-.867.456-1.247.948-1.48.592-.28 1.407-.135 2.564.446.827.415.648 1.34-.07 2.658a14.05 14.05 0 0 1-.403.688c-.233.376-.883 1.348-.884 1.351-.076.244-.085.512-.05 1.014.078 1.072.041 1.496-.295 1.984-.396.575-.85.889-1.898 1.445-1.022.542-1.403.813-1.67 1.266-2.609 4.412-4.757 7.332-7.514 10.3-4.814 5.184-8.293 8.199-10.986 8.772-2.149.458-3.033.691-4.06 1.032-1.082.36-1.62.517-2.946.838-.948.23-1.823.275-3.937.28l-.711.003c-1.847.014-2.97.118-3.936.428-.82.263-2.805.717-3.414.741-.398.016-.746.026-1.107.033-.097.002-.585.01-.69.013-.33.008-.446.024-.542.064.004-.002-1.194.795-2.347 1.422-1.61.875-2.937.456-4.512-.92-.995-.868-1.399-.906-1.757-.588-.032.028-.174.166-.215.202-.152.132-.295.205-.496.187-.326-.03-.489-.252-.662-.688-.24-.602-.24-.958-.035-1.335l.09-.156c.181-.328.203-.767-.074-1.878-.031-.128-.182-.229-.668-.43-.745-.306-1.041-.501-1.164-.921l-.6-1.219c-.291-.953.066-1.402.984-1.796l.21-.09c.733-.322.915-.612.665-1.59-.543-2.133-1.444-4.067-3.098-6.97-3.131-5.498-3.584-6.45-3.656-8.68-.04-1.271 2.254-3.014 3.37-2.414.574.309.77.734 1.019 1.75.155.636.25.897.41 1.104 1.141 1.474 2.073 1.367 4.356.05.311-.18.409-.237.521-.3l1.937-1.174c.039-1.483.054-3.045.05-4.848z"/>
        <path fill="#FFF" d="M28.788 41.106a7.965 7.965 0 0 0-7.964 7.964c0 4.396 7.964 14.79 7.964 14.79s7.963-10.394 7.963-14.79a7.965 7.965 0 0 0-7.963-7.964"/>
        <path fill="#F66F26" fill-rule="nonzero" d="M28.788 40.656A8.415 8.415 0 0 1 37.2 49.07c0 1.563-.893 3.828-2.476 6.652a58.274 58.274 0 0 1-1.576 2.632 86.57 86.57 0 0 1-4.004 5.78.45.45 0 0 1-.715 0 84.792 84.792 0 0 1-1.253-1.704 86.57 86.57 0 0 1-2.751-4.076 58.274 58.274 0 0 1-1.576-2.632c-1.583-2.824-2.476-5.089-2.476-6.652a8.415 8.415 0 0 1 8.414-8.414zm.878 21.249a85.686 85.686 0 0 0 2.723-4.032 57.385 57.385 0 0 0 1.551-2.591c1.51-2.695 2.36-4.852 2.36-6.212a7.515 7.515 0 0 0-7.512-7.514 7.515 7.515 0 0 0-7.514 7.514c0 1.36.85 3.517 2.361 6.212.465.83.986 1.696 1.551 2.59a85.686 85.686 0 0 0 3.602 5.238c.265-.357.56-.762.878-1.205z"/>
        <path fill="#FBC5A8" d="M28.8 52.2a3.6 3.6 0 1 1 3.6-3.599 3.599 3.599 0 0 1-3.6 3.599"/>
        <path fill="#F66F26" fill-rule="nonzero" d="M28.8 51.793a3.192 3.192 0 1 0-3.193-3.192 3.192 3.192 0 0 0 3.193 3.192zm0 .814a4.006 4.006 0 1 1 4.007-4.006 4.006 4.006 0 0 1-4.007 4.006z"/>
        <g>
            <path fill="#FFF" d="M57.588 19.506a7.965 7.965 0 0 0-7.964 7.964c0 4.396 7.964 14.79 7.964 14.79s7.963-10.394 7.963-14.79a7.965 7.965 0 0 0-7.963-7.964"/>
            <path fill="#F66F26" fill-rule="nonzero" d="M57.588 19.056A8.415 8.415 0 0 1 66 27.47c0 1.563-.893 3.828-2.476 6.652a58.274 58.274 0 0 1-1.576 2.632 86.57 86.57 0 0 1-4.004 5.78.45.45 0 0 1-.715 0 84.792 84.792 0 0 1-1.253-1.704 86.57 86.57 0 0 1-2.751-4.076 58.274 58.274 0 0 1-1.576-2.632c-1.583-2.824-2.476-5.089-2.476-6.652a8.415 8.415 0 0 1 8.414-8.414zm.878 21.249a85.686 85.686 0 0 0 2.723-4.032 57.385 57.385 0 0 0 1.551-2.591c1.51-2.695 2.36-4.852 2.36-6.212a7.515 7.515 0 0 0-7.512-7.514 7.515 7.515 0 0 0-7.514 7.514c0 1.36.85 3.517 2.361 6.212.465.83.986 1.696 1.551 2.59a85.686 85.686 0 0 0 3.602 5.238c.265-.357.56-.762.878-1.205z"/>
            <path fill="#FBC5A8" d="M57.6 30.6a3.6 3.6 0 1 1 3.6-3.599 3.599 3.599 0 0 1-3.6 3.599"/>
            <path fill="#F66F26" fill-rule="nonzero" d="M57.6 30.193a3.192 3.192 0 1 0-3.193-3.192 3.192 3.192 0 0 0 3.193 3.192zm0 .814A4.006 4.006 0 1 1 61.607 27a4.006 4.006 0 0 1-4.007 4.006z"/>
        </g>
    </g>
</svg>
