<svg xmlns="http://www.w3.org/2000/svg" width="90" height="90" viewBox="0 0 90 90">
    <g fill="none" fill-rule="evenodd">
        <path fill="#FBC5A8" d="M39.774 22.465a.756.756 0 0 1-.748-.754v-4.527c0-.412.34-.756.748-.756h8.978c.409 0 .748.344.748.756v4.527c0 .413-.34.754-.748.754h-8.978z"/>
        <path fill="#FFF" d="M41.27 27.74h5.986v-5.275H41.27z"/>
        <path fill="#F66F26" fill-rule="nonzero" d="M40.82 28.19v-6.175h6.886v6.176H40.82zm5.986-.9v-4.375H41.72v4.376h5.086z"/>
        <path fill="#FFF" d="M59.895 27.407l3.346 2.637-2.764 3.568-3.345-2.637z"/>
        <path fill="#F66F26" fill-rule="nonzero" d="M57.76 30.898l2.64 2.08 2.212-2.857-2.639-2.08-2.212 2.857zm6.11-.932l-3.315 4.28-4.052-3.194 3.314-4.28 4.053 3.194z"/>
        <path fill="#FBC5A8" d="M57.563 26.54c-.322-.252-.443-.653-.266-.882l1.94-2.505c.177-.228.592-.207.914.048l7.074 5.575c.323.254.443.654.266.882l-1.94 2.505c-.177.23-.591.206-.913-.047l-7.075-5.575z"/>
        <path fill="#F66F26" fill-rule="nonzero" d="M57.841 26.187l7.075 5.575c.148.117.28.124.28.125l1.94-2.505a.536.536 0 0 0-.19-.252l-7.074-5.576c-.147-.116-.28-.123-.279-.125l-1.94 2.505c-.001.001.04.136.188.253zm-.9-.804l1.94-2.505c.356-.46 1.053-.423 1.549-.03l7.072 5.574c.497.39.698 1.056.345 1.511l-1.94 2.506c-.356.459-1.05.422-1.548.03l-7.074-5.574c-.496-.39-.696-1.057-.344-1.512z"/>
        <path fill="#FFF" d="M44.763 27.52c-12.521 0-22.672 10.24-22.672 22.868 0 12.63 10.15 22.87 22.672 22.87 12.521 0 22.672-10.24 22.672-22.87 0-12.629-10.15-22.869-22.672-22.869"/>
        <path fill="#F66F26" fill-rule="nonzero" d="M44.763 27.07c12.77 0 23.122 10.441 23.122 23.318s-10.352 23.32-23.122 23.32-23.122-10.443-23.122-23.32 10.352-23.319 23.122-23.319zm0 .9c-12.271 0-22.222 10.037-22.222 22.418 0 12.382 9.95 22.42 22.222 22.42 12.272 0 22.222-10.038 22.222-22.42 0-12.381-9.95-22.419-22.222-22.419z"/>
        <path fill="#FBC5A8" d="M44.763 31.522c-10.33 0-18.705 8.446-18.705 18.865 0 10.42 8.375 18.868 18.705 18.868 10.33 0 18.705-8.449 18.705-18.868 0-10.419-8.375-18.865-18.705-18.865"/>
        <path fill="#FBC5A8" fill-rule="nonzero" d="M17.685 40.05H8.886a.45.45 0 0 0 0 .9h8.8a.45.45 0 0 0 0-.9zM17.548 58.05H8.826a.45.45 0 0 0 0 .9h8.722a.45.45 0 1 0 0-.9zM16.454 49.05H3.142a.45.45 0 0 0 0 .9h13.312a.45.45 0 0 0 0-.9zM66.374 69.812c4.697-5.313 7.337-12.162 7.337-19.425 0-4.683-1.095-9.209-3.166-13.288a.45.45 0 0 0-.803.407 28.368 28.368 0 0 1 3.07 12.881c0 7.041-2.56 13.68-7.112 18.829a.45.45 0 1 0 .674.596z"/>
        <path fill="#F66F26" fill-rule="nonzero" d="M35.873 42.17l8.028 8.208a.45.45 0 0 0 .644-.63l-8.029-8.207a.45.45 0 1 0-.643.63z"/>
        <path fill="#FFF" d="M47.397 50.388c0 1.465-1.182 2.657-2.634 2.657s-2.634-1.192-2.634-2.657 1.182-2.656 2.634-2.656 2.634 1.19 2.634 2.656"/>
        <path fill="#F66F26" fill-rule="nonzero" d="M46.947 50.388c0-1.217-.981-2.206-2.184-2.206-1.203 0-2.184.989-2.184 2.206s.982 2.207 2.184 2.207c1.203 0 2.184-.99 2.184-2.207zm.9 0c0 1.712-1.382 3.107-3.084 3.107-1.701 0-3.084-1.395-3.084-3.107 0-1.713 1.383-3.106 3.084-3.106 1.702 0 3.084 1.393 3.084 3.106zM28.911 49.95h1.906a.45.45 0 0 0 0-.9h-1.906a.45.45 0 0 0 0 .9zM58.593 49.95h1.906a.45.45 0 0 0 0-.9h-1.906a.45.45 0 1 0 0 .9zM45.45 66.27v-1.923a.45.45 0 1 0-.9 0v1.922a.45.45 0 1 0 .9 0zM45.45 36.332v-1.923a.45.45 0 0 0-.9 0v1.923a.45.45 0 0 0 .9 0z"/>
        <path fill="#FBC5A8" fill-rule="nonzero" d="M33.857 61.92l1.348-1.359-.64-.634-1.347 1.36zM54.844 40.752l1.348-1.36-.639-.634-1.348 1.36zM56.192 61.287l-1.348-1.36-.639.634 1.348 1.36zM39.044 65.215l.734-1.774-.832-.344-.734 1.775zM50.465 37.582l.733-1.775-.831-.344-.734 1.775zM59.457 56.054l-1.76-.74-.348.83 1.76.74zM51.133 64.901l-.726-1.778-.833.34.725 1.778zM59.138 43.861l-1.763.731.345.832 1.763-.732zM31.69 55.255l-1.762.732.345.831 1.762-.731z"/>
        <path fill="#F66F26" fill-rule="nonzero" d="M39.774 22.015h8.978c.16 0 .298-.139.298-.304v-4.527a.308.308 0 0 0-.298-.306h-8.978a.308.308 0 0 0-.298.306v4.527c0 .165.138.304.298.304zm0 .9a1.206 1.206 0 0 1-1.198-1.204v-4.527c0-.66.54-1.206 1.198-1.206h8.978c.658 0 1.198.546 1.198 1.206v4.527c0 .66-.54 1.204-1.198 1.204h-8.978z"/>
    </g>
</svg>
