<svg xmlns="http://www.w3.org/2000/svg" xmlns:xlink="http://www.w3.org/1999/xlink" width="90" height="90" viewBox="0 0 90 90">
    <defs>
        <path id="a" d="M45 74.7c-13.232 0-24.444-8.654-28.281-20.61A29.597 29.597 0 0 1 15.3 45C15.3 28.6 28.594 15.3 45 15.3c6.378 0 12.282 2.01 17.122 5.431C69.73 26.107 74.7 34.973 74.7 45.001 74.7 61.4 61.402 74.7 45 74.7z"/>
    </defs>
    <g fill="none" fill-rule="evenodd">
        <mask id="b" fill="#fff">
            <use xlink:href="#a"/>
        </mask>
        <use fill="#FBC5A8" xlink:href="#a"/>
        <path fill="#FFF" d="M26.147 60.5c.104.288-.092.74-.434 1.006-.342.266-.868 1.131-1.17 1.923l-.784 2.06c-.13.34-.506.726-.836.856-.33.13-1.141 1.14-1.803 2.246-.663 1.104-1.42 2.067-1.68 2.14a.695.695 0 0 0-.476.634c0 .276-.44.918-.976 1.426-.537.508-1.157 1.747-1.378 2.752-.22 1.006-.06 2.393.355 3.082.416.688.327 1.337-.198 1.44-.524.103-1.289-.03-1.699-.295-.41-.266-.979-1.164-1.263-1.995-.285-.832-.484-3.223-.445-5.313l.015-.753.1-5.223c.016-.782-.404-1.627-.932-1.877-.529-.25-1.539-1.479-2.243-2.729-.705-1.25-.833-2.834-.285-3.517.549-.684.929-1.515.846-1.845-.083-.33-.286-.545-.453-.479-.166.067-.632-.041-1.034-.241-.403-.2-1.43-.853-2.283-1.45s-1.694-.884-1.869-.638c-.174.246-.955.113-1.735-.295-.78-.408-1.418-.924-1.418-1.144 0-.22-.529-1.435-1.175-2.697-.646-1.264-.994-1.366-.773-.23.22 1.137.306 2.081.19 2.098-.117.017-.76-1.226-1.433-2.763-.67-1.537-1.374-3.323-1.56-3.968-.188-.646-.328-1.243-.311-1.326l.467-2.305c.242-1.185.17-3.124-.16-4.31a84.343 84.343 0 0 0-1.036-3.458c-.241-.716-.92-1.679-1.51-2.14-.59-.46-2.582-.004-4.425 1.015l-.266.147c-1.843 1.02-3.448 1.752-3.565 1.628-.118-.123.634-.731 1.67-1.35 1.036-.618 1.408-1.576.828-2.13-.58-.554-.607-1.462-.059-2.018.549-.555 1.229-1.005 1.512-.998.283.008.651-.179.818-.414.166-.235-.047-.525-.474-.643-.428-.118-.858-.465-.956-.77-.097-.307.251-.607.775-.668.523-.062.945.111.938.384-.007.273.185.363.428.202.242-.163.374-.775.291-1.36-.081-.584.803-1.386 1.965-1.782 1.164-.396 3.02.13 4.125 1.168 1.106 1.04 2.705 1.741 3.554 1.56.85-.181 1.988.1 2.531.622.544.524 1.184 1.22 1.423 1.55.24.329.943.47 1.563.314.621-.156 1.517-.053 1.993.228.475.282 1.095.407 1.376.28.282-.129.69-.63.91-1.117.218-.484.704-1.5 1.08-2.255.374-.756.962-1.25 1.305-1.098.343.151.179 1.03-.364 1.952-.544.922-.972 1.742-.951 1.822l.194.76c.086.339.46.414.831.168.372-.247.768-.188.882.128.113.316.094.814-.043 1.107-.136.291-.654.733-1.15.98-.496.246-1.536.92-2.31 1.498-.774.577-1.482 1.53-1.573 2.118-.092.59.146 1.31.527 1.6l.998.768c.168.129.618.346 1.001.48.383.136.97-.044 1.304-.4.335-.356.559-1.256.499-1.998-.06-.744.195-1.562.567-1.818.373-.257.985-.209 1.36.108.376.315.814.916.975 1.335.16.42.516.525.79.235.274-.289.503-.398.509-.242.006.156.205.796.444 1.423.239.626.72 1.495 1.07 1.93.351.436.414.988.143 1.228-.273.24-1.07.522-1.773.629-.702.106-1.31.43-1.35.719-.039.288.114.576.34.64.226.063.526.306.668.541.142.234-.037.543-.397.686-.36.143-.836.222-1.057.176-.222-.047-.983.325-1.692.824-.708.5-1.295 1.19-1.304 1.535-.008.344-.523 1.031-1.145 1.527s-1.262 1.531-1.422 2.3c-.16.77-.346 1.406-.414 1.413-.068.007-.286-.377-.485-.853-.2-.476-.724-.911-1.167-.968-.443-.056-1.463.119-2.266.39-.804.27-1.523 1.057-1.598 1.749-.075.69.192 1.452.595 1.692.402.24 1.067.196 1.477-.096.41-.292.882-.499 1.048-.46.167.038.179.497.027 1.02-.151.522.037.984.417 1.026.382.041.703.31.716.596.012.286.272.753.577 1.036.306.284.646.41.755.28.11-.13.41-.13.666.001.257.131.809.104 1.227-.06.419-.164 1.966-.212 3.438-.107 1.472.104 3.07.778 3.55 1.496.479.717 1.78 1.372 2.89 1.456 1.11.084 2.427.555 2.923 1.047.497.492.988 1.13 1.092 1.417zm6.566-40.687c.152.105.188.335.08.512-.11.176-.566.921-1.016 1.656-.45.735-.838 1.629-.864 1.988-.026.358-.314 1.796-.64 3.194s-1.172 2.718-1.878 2.932c-.706.216-1.416.626-1.578.913-.161.287-.635.594-1.051.682-.417.088-1.08.834-1.476 1.66-.395.825-.895 1.64-1.112 1.812-.218.17-.688.007-1.046-.366-.357-.372-.815-1.384-1.017-2.249-.202-.864-.209-1.868-.014-2.23.194-.363.284-1.116.199-1.673-.086-.555-.106-1.751-.047-2.656.06-.905-.413-1.716-1.05-1.804-.636-.086-1.224-.742-1.306-1.456-.082-.714.375-1.326 1.015-1.36.64-.034 1.164-.298 1.164-.586 0-.289.422-.937.939-1.44.516-.504 1.345-1.075 1.84-1.271.497-.195 1.048-.262 1.227-.149.178.113.516.097.752-.034.236-.132 1.091-.445 1.901-.694.81-.249 2.139.037 2.633.384.495.347.792.758.662.913-.13.156-.067.46.14.675.208.214.564.396.79.402.227.007.427.022.444.033l.309.212zm55.695 2.144c.087.48.33 1.095.538 1.368.209.273.158.967-.113 1.542-.27.574-.817 1.36-1.214 1.747-.396.386-.535.95-.307 1.254.228.304.482 1.574.564 2.823.084 1.25-.007 2.414-.201 2.589-.194.175-.939-.605-1.656-1.733-.717-1.128-1.097-3.08-.844-4.338.254-1.258.071-2.152-.406-1.986-.478.165-.844.685-.815 1.156.03.47-.148 1.091-.395 1.382-.245.29-.756.534-1.135.541a4.874 4.874 0 0 0-1.362.27c-.372.141-.78.887-.905 1.657-.127.77.073 1.38.444 1.355.37-.024.857.34 1.08.812.222.47.59 1.481.817 2.247.227.765.101 1.924-.28 2.575-.38.651-.906 1.19-1.167 1.2-.261.007-.586.296-.723.642-.137.345-.019 1.155.262 1.799.28.645.374 1.355.208 1.578-.166.223-.689-.203-1.16-.947s-1.227-1.52-1.68-1.724c-.453-.204-.929-.047-1.057.348-.128.395-.027.892.226 1.104.252.213.707 1.216 1.009 2.229.302 1.013.307 2.258.01 2.767-.296.51-.954 1.083-1.46 1.274-.508.191-1.16.488-1.452.66-.292.172-.47.992-.395 1.821.075.83-.09 1.678-.366 1.887-.275.208-.625.183-.777-.056-.151-.239-.48-.509-.728-.6-.25-.09-.453-.04-.452.114 0 .153.399.968.884 1.81.485.843.701 1.676.48 1.852-.22.177-.846-.338-1.39-1.143-.543-.806-.943-1.786-.888-2.18.055-.392-.052-.917-.237-1.167-.184-.249-.39-.47-.454-.492-.066-.021-.572-.52-1.127-1.109-.554-.59-1.556-.664-2.226-.167-.67.497-1.407 1.626-1.638 2.508-.23.883-.569 1.68-.751 1.772-.182.092-.908-.825-1.611-2.036a278.88 278.88 0 0 0-1.833-3.115c-.304-.502-1.555-1.152-2.78-1.445-1.225-.293-2.52-.937-2.88-1.433-.358-.495-.79-.811-.96-.702-.17.11-.014.733.345 1.387.36.653.92 1.186 1.245 1.184.326-.003.924.23 1.33.517.406.287.532.785.279 1.108-.253.322-1.394.94-2.536 1.375-1.142.434-2.708-.018-3.479-1.006-.77-.986-1.595-1.582-1.83-1.325-.237.257.254 1.207 1.091 2.11.837.903 2.147 1.557 2.912 1.454.766-.103 1.741.095 2.169.44.427.345-.208 1.415-1.411 2.377-1.204.962-2.227 2.859-2.275 4.215-.048 1.356-.61 2.782-1.247 3.168-.638.385-1.356 1.226-1.597 1.868-.24.643-1.36 1.994-2.487 3.002-1.129 1.008-2.4 1.76-2.825 1.667-.426-.092-1.205-1.814-1.732-3.827-.526-2.012-.768-4.092-.536-4.622.232-.53.143-1.612-.197-2.404l-.89-2.07c-.15-.346-1.561-.528-3.138-.405s-3.448-.354-4.158-1.059c-.71-.705-1.4-1.976-1.533-2.823s.295-2.393.952-3.435c.656-1.042 1.51-2.298 1.897-2.79s1.512-.975 2.5-1.072l2.891-.287c.602-.06 1.084.092 1.07.337-.013.245.36.616.83.823.47.208 1.279.279 1.799.158.518-.12 1.889-.112 3.044.018s2.204-.192 2.331-.717c.127-.525-.277-.928-.899-.895-.62.033-1.435-.254-1.81-.64-.374-.384-.58-.36-.459.051.122.413-.164.798-.634.857-.47.058-1.056-.507-1.3-1.255-.247-.748-.622-1.517-.837-1.709-.214-.192-.504-.192-.644 0s-.008.718.295 1.17c.302.45.234.918-.15 1.038-.385.121-.804.121-.93 0-.126-.12-.114-.376.028-.57.14-.192-.065-.728-.455-1.192-.391-.463-1.162-.542-1.713-.176-.55.367-1.077.717-1.17.778-.093.062-.318.35-.5.64-.184.29-.734.66-1.224.82-.49.161-1.16.227-1.49.148-.329-.08-.478-.728-.332-1.442.147-.713.707-1.294 1.244-1.29.537.004 1.044-.214 1.124-.484.082-.272-.005-.592-.192-.713a1.504 1.504 0 0 1-.49-.585c-.084-.2.2-.546.627-.768l1.066-.555c.158-.082.486-.452.728-.822.242-.37.34-.85.218-1.069-.122-.217.066-.63.418-.917.352-.286.87-.038 1.15.554.282.59.902.916 1.38.722.478-.195 1.41-.875 2.072-1.512.662-.637 1.272-1.277 1.356-1.42.083-.144-.245-.137-.73.013-.486.151-.976-.083-1.09-.518-.113-.437.051-1.04.365-1.341.314-.301.52-.691.46-.868-.062-.176-.495-.062-.962.255-.467.317-.922 1-1.013 1.52-.09.518-.25 1.264-.353 1.655-.105.391-.481.63-.837.53-.355-.099-.796-.355-.98-.57-.184-.213-.651-.326-1.04-.25-.386.077-.799-.214-.916-.645-.117-.432.173-.962.644-1.179.472-.216.939-1.006 1.038-1.756.1-.75 1.04-1.944 2.092-2.655 1.05-.711 3.146-.612 4.656.221 1.51.834 2.727 1.331 2.704 1.105-.022-.225.043-.457.144-.515.103-.059.312.055.466.251.154.197.712.112 1.24-.189.527-.301 1.084-.787 1.237-1.079.153-.291.538-.39.854-.22.316.17.801.134 1.078-.083.277-.217.31-.907.075-1.533-.235-.627-.03-1.311.456-1.522.487-.21 1.144-.257 1.462-.102.32.155 1.102.39 1.74.524.639.133.868.005.509-.282-.36-.289-.707-.776-.776-1.085-.067-.308.14-.707.463-.885.322-.179.671-.776.775-1.326.105-.55.77-1.319 1.48-1.707.708-.389 1.964-.557 2.79-.375.827.183 1.179 1.098.781 2.033-.398.935-.138 1.359.577.942.715-.416 1.914-.78 2.667-.81.751-.028 1.748.128 2.215.347.466.219.995.16 1.176-.13.18-.29 1.134-.789 2.12-1.108.986-.319 2.103-.458 2.485-.308.38.15 1.157.147 1.723-.007.568-.154 1.323-.109 1.679.102.355.21.925.252 1.267.095.342-.158 1.014-.46 1.492-.674.48-.213 1.993-.282 3.365-.152 1.37.13 2.772.428 3.114.663.34.236.726.697.855 1.025.13.328.032.683-.217.787-.249.105-.682.26-.964.344-.282.083-.44.543-.354 1.022zm-36.732 2.184c-.247.23-.703.151-1.012-.175-.31-.326-.266-1.316.097-2.199.363-.883 1.31-1.687 2.104-1.787.795-.099 1.533-.022 1.64.17.107.192-.25.476-.796.63-.544.154-1.185.688-1.423 1.187-.239.498-.372 1.098-.297 1.331.075.234-.066.613-.313.843zM38.681 35.157c.172.432.236.83.14.887-.095.057-.57.34-1.054.631-.485.29-.854-.329-.82-1.376.032-1.048.215-2.064.405-2.26.189-.194.495.025.68.49l.65 1.628zm16.285 25.726c.013.558-.172 1.557-.41 2.22-.237.662-.713.983-1.056.713-.345-.27-.512-1-.372-1.624.14-.623.605-1.401 1.034-1.728.43-.328.791-.14.804.419z" mask="url(#b)"/>
        <path fill="#F66F26" fill-rule="nonzero" d="M11.298 56.409c.128.513-.301 1.449-.932 2.235-.411.513-.298 1.908.326 3.015.662 1.175 1.623 2.345 2.043 2.543.706.334 1.209 1.347 1.19 2.293l-.083 4.318-.017.905-.015.752c-.038 2.043.158 4.391.42 5.16.255.744.773 1.562 1.083 1.762.31.2.954.313 1.368.231.14-.027.177-.305-.101-.766-.48-.795-.653-2.299-.41-3.41.24-1.087.9-2.406 1.508-2.983.451-.427.836-.988.836-1.099 0-.476.347-.939.804-1.067.095-.027.83-.963 1.416-1.938.717-1.198 1.563-2.251 2.024-2.434.21-.083.495-.374.58-.598l.612-1.605.173-.454c.328-.861.893-1.79 1.314-2.119.202-.157.315-.417.287-.496-.076-.209-.533-.803-.986-1.25-.408-.406-1.626-.841-2.64-.918-1.24-.094-2.668-.813-3.231-1.655-.388-.581-1.86-1.202-3.207-1.297-1.403-.1-2.909-.054-3.242.077-.527.207-1.207.24-1.596.042-.092-.047-.172-.047-.116-.114a.725.725 0 0 1-.05.054c.308.089.542.42.642.816zm-2.719-2.455c-.002-.037-.135-.148-.315-.168-.71-.078-1.02-.84-.8-1.599.035-.12.06-.236.074-.34-.133.069-.304.165-.456.273-.552.393-1.409.449-1.968.116-.576-.343-.905-1.278-.812-2.128.095-.878.94-1.804 1.901-2.127.862-.29 1.943-.476 2.467-.41.58.075 1.201.57 1.483 1.15.03-.124.058-.254.085-.386.182-.873.878-2 1.582-2.56.527-.42.972-1.015.977-1.187.012-.534.675-1.313 1.494-1.892.825-.58 1.644-.98 2.043-.897.12.025.513-.04.799-.154.132-.052.15-.081.177-.035-.084-.14-.292-.309-.405-.34-.46-.13-.73-.64-.662-1.134.077-.56.844-.97 1.728-1.103.624-.095 1.349-.352 1.542-.522.056-.049.022-.337-.195-.607-.382-.475-.886-1.385-1.14-2.053a15.668 15.668 0 0 1-.322-.924c-.508.406-1.17.167-1.422-.49-.132-.347-.525-.885-.844-1.153-.224-.19-.613-.22-.814-.082-.216.15-.424.812-.375 1.411.07.859-.185 1.882-.619 2.344-.45.478-1.22.715-1.781.516-.424-.15-.913-.385-1.127-.55l-.996-.765c-.522-.398-.814-1.285-.699-2.026.112-.723.888-1.769 1.75-2.411.792-.591 1.853-1.28 2.378-1.54.413-.206.857-.584.943-.768.086-.184.1-.558.026-.765 0 .001-.055-.007-.209.096-.602.4-1.343.25-1.516-.431l-.123-.484-.071-.277c-.07-.275.26-.907.999-2.162.24-.406.402-.81.46-1.119.033-.181.023-.231.11-.193-.037-.016-.441.323-.72.887a83.924 83.924 0 0 0-1.073 2.24c-.26.577-.735 1.16-1.134 1.34-.443.202-1.204.048-1.79-.3-.37-.219-1.145-.307-1.655-.18-.78.196-1.67.018-2.037-.486-.22-.303-.844-.982-1.37-1.49-.432-.414-1.418-.657-2.126-.506-1.022.218-2.754-.542-3.956-1.672-.991-.931-2.677-1.409-3.671-1.07-.982.334-1.707.992-1.665 1.294.104.737-.062 1.51-.488 1.796-.502.335-1.074.098-1.124-.48a.972.972 0 0 0-.439-.033c-.283.033-.386.122-.398.083.047.146.354.393.647.474.682.19 1.116.779.721 1.337-.253.357-.763.616-1.196.604-.116-.003-.716.394-1.18.864-.37.375-.352.994.049 1.376.605.578.523 1.4-.032 2.095.187-.1.378-.205.57-.31l.266-.148c1.997-1.103 4.13-1.593 4.92-.975.658.514 1.39 1.55 1.66 2.35.244.725.712 2.29 1.043 3.482.348 1.253.423 3.265.167 4.52a880.955 880.955 0 0 0-.467 2.302c.006-.028.154.603.301 1.114.18.619.875 2.387 1.542 3.913.123.282.247.557.367.818a2.538 2.538 0 0 1-.049-.634c.033-.37.273-.682.701-.555.32.094.602.492.984 1.24.7 1.368 1.225 2.573 1.225 2.903.057-.015.14.064.25.151.24.195.572.409.927.594.34.178.686.301.961.348.168.029.247.017.198.085.404-.567 1.422-.22 2.494.53.62.434 1.335.899 1.818 1.187-.323-.355-.572-.843-.588-1.212zm.995 1.44c.294.147.656.232.667.227a.63.63 0 0 1 .415-.028c-.354.345-.9.13-1.356-.292a2.252 2.252 0 0 1-.133-.135c.169.101.31.18.407.229zM.748 50.289l.078.16-.078-.16zm.078.16l-.078-.16c.17 1.087.107 1.53-.374 1.6-.485.068-.926-.782-1.908-3.029-.681-1.56-1.388-3.356-1.581-4.023-.228-.787-.358-1.344-.32-1.536.016-.083.214-1.06.469-2.31.227-1.115.157-2.982-.153-4.1a83.996 83.996 0 0 0-1.03-3.434c-.213-.633-.84-1.523-1.36-1.93-.39-.304-2.24.12-3.93 1.055l-.266.147c-2.442 1.35-3.735 1.94-4.109 1.545-.38-.4-.172-.65.445-1.15a11.9 11.9 0 0 1 1.32-.897c.817-.487 1.062-1.12.748-1.419-.76-.725-.795-1.922-.068-2.66.633-.64 1.393-1.142 1.844-1.13a.647.647 0 0 0 .337-.128.74.74 0 0 0-.125-.046c-.562-.155-1.115-.6-1.264-1.068-.207-.65.386-1.162 1.15-1.251.518-.062 1.01.053 1.263.339.024-.171.032-.39.002-.603-.122-.867.922-1.814 2.265-2.271 1.332-.454 3.359.12 4.579 1.266 1.008.949 2.475 1.592 3.151 1.448.99-.211 2.281.107 2.938.738.56.54 1.217 1.255 1.474 1.608.113.156.629.26 1.09.143.731-.183 1.749-.066 2.332.278.36.214.84.311.96.256.164-.074.507-.495.685-.89.226-.5.716-1.524 1.087-2.271.47-.948 1.242-1.597 1.89-1.31.728.321.518 1.445-.158 2.592-.26.443-.502.874-.675 1.207-.083.159-.148.29-.189.381.002.05.013.095.033.172l.119.466c.003.012.01.014.15-.08.588-.39 1.327-.282 1.554.351.154.428.13 1.05-.058 1.45-.187.4-.78.905-1.357 1.192-.47.234-1.489.895-2.242 1.456-.689.514-1.328 1.375-1.398 1.828-.067.435.115.99.357 1.174l.999.767c.123.095.535.293.877.413.203.072.607-.052.825-.284.236-.25.43-1.027.378-1.654-.072-.887.232-1.86.761-2.225.545-.375 1.38-.309 1.904.134.433.364.917 1.027 1.106 1.52.212-.092.379-.226.532-.299.343-.163.779-.046.797.436.003.085.197.708.415 1.279.222.583.68 1.411 1 1.809.483.6.578 1.416.089 1.847-.352.308-1.223.617-2.002.736-.522.079-.969.317-.971.335.355.24.748.558.946.887.313.516-.028 1.104-.616 1.337-.435.173-.993.266-1.315.198.028.006-.152.064-.374.172-.293.143-.64.35-.966.58-.6.424-1.11 1.023-1.114 1.177-.012.517-.597 1.297-1.315 1.87-.54.43-1.123 1.373-1.262 2.039-.284 1.368-.39 1.73-.808 1.768-.41.042-.592-.278-.946-1.127-.14-.333-.533-.66-.808-.694-.363-.047-1.322.118-2.066.369-.647.217-1.24.866-1.294 1.371-.058.533.148 1.121.377 1.257.245.146.718.116.986-.075.514-.366 1.072-.611 1.41-.533.567.13.584.805.358 1.584-.083.286-.017.448.034.453.583.064 1.093.49 1.116 1.025.007.153.209.516.435.726.09.083.182.147.258.184.288-.185.709-.154 1.06.025.126.064.55.043.859-.078.504-.198 2.092-.247 3.634-.137 1.597.113 3.32.84 3.891 1.695.397.592 1.57 1.183 2.552 1.257 1.208.092 2.622.598 3.205 1.176.54.534 1.066 1.217 1.198 1.584.179.495-.099 1.14-.58 1.513-.264.205-.751 1.007-1.026 1.729l-.171.449-.614 1.61c-.175.459-.643.938-1.09 1.114-.2.08-.977 1.047-1.584 2.06-.739 1.231-1.517 2.222-1.944 2.341-.066.02-.147.127-.147.201 0 .442-.494 1.163-1.117 1.753-.465.44-1.045 1.598-1.247 2.522-.198.9-.051 2.17.3 2.752.554.917.414 1.935-.496 2.114-.637.126-1.52-.028-2.03-.359-.512-.33-1.131-1.309-1.445-2.226-.306-.895-.51-3.327-.469-5.468l.015-.752.016-.838.085-4.386c.012-.618-.324-1.295-.676-1.461-.637-.302-1.695-1.588-2.442-2.915-.786-1.393-.929-3.166-.244-4.02.465-.58.798-1.305.76-1.453-.374-.093-.833-.22-1.25-.427-.428-.213-1.471-.875-2.341-1.484-.383-.268-.77-.474-1.076-.578a1.284 1.284 0 0 0-.26-.065c-.419.388-1.316.212-2.219-.26-.951-.498-1.659-1.07-1.659-1.543 0-.09-.347-.903-.793-1.823zm31.33-30.472c.095.063-.012.05.072.056a6.914 6.914 0 0 0-.28-.014c-.354-.01-.817-.246-1.102-.54-.35-.362-.464-.913-.161-1.275-.115.136-.101.188-.116.167a2.031 2.031 0 0 0-.46-.424c-.438-.308-1.63-.51-2.241-.322-.778.24-1.615.545-1.814.657-.37.206-.883.23-1.213.021-.017-.01-.45.042-.82.187-.437.173-1.217.711-1.692 1.175-.435.424-.803.988-.803 1.118 0 .619-.737.99-1.59 1.035-.368.02-.645.392-.592.86.06.518.496 1.004.92 1.062.907.124 1.512 1.162 1.438 2.278-.057.877-.037 2.042.043 2.56.099.646-.003 1.496-.248 1.952-.129.241-.123 1.149.056 1.916.185.793.612 1.736.904 2.04.217.226.459.31.442.324.142-.113.62-.892.986-1.654.449-.94 1.197-1.78 1.789-1.906.297-.062.658-.296.751-.462.234-.415 1.03-.876 1.84-1.122.514-.156 1.276-1.346 1.57-2.604.32-1.371.606-2.8.629-3.125.033-.45.445-1.399.93-2.19.588-.96.875-1.43.989-1.614l-.227-.156zm.811-.534c.36.248.437.745.209 1.119-.092.148-.377.613-1.015 1.655-.414.677-.78 1.518-.8 1.785-.027.392-.317 1.84-.65 3.264-.359 1.539-1.287 2.989-2.185 3.26-.605.185-1.227.546-1.316.704-.23.41-.816.789-1.35.9-.244.052-.824.704-1.164 1.415-.426.89-.948 1.74-1.24 1.971-.451.355-1.15.111-1.648-.407-.423-.44-.913-1.522-1.131-2.458-.225-.963-.232-2.063.027-2.546.144-.269.222-.924.151-1.39-.091-.592-.112-1.819-.05-2.756.045-.693-.295-1.277-.662-1.328-.85-.115-1.59-.94-1.693-1.85-.11-.961.526-1.813 1.438-1.861.252-.014.485-.07.644-.15.082-.042.094-.056.094.013 0-.448.476-1.179 1.074-1.762.556-.542 1.433-1.148 1.99-1.368.622-.244 1.293-.325 1.632-.11.027.017.192.01.293-.047.273-.153 1.148-.472 1.988-.731.88-.27 2.36-.02 3.024.446.709.497 1.144 1.098.748 1.57.042-.05.054.006.118.073.132.136.381.262.481.265.462.014.547.02.688.114l.305.21zm54.464 12.911c.036-.46.036-1.045-.004-1.632-.076-1.159-.32-2.376-.475-2.583-.386-.514-.188-1.32.353-1.846.357-.348.873-1.09 1.12-1.617.208-.44.247-.968.163-1.077-.256-.335-.524-1.016-.623-1.56-.123-.677.117-1.371.668-1.535.27-.08.688-.229.919-.327-.005.002.02-.086-.028-.208-.095-.24-.421-.632-.691-.818-.255-.175-1.61-.464-2.902-.586-1.297-.123-2.751-.057-3.139.115-.498.222-1.16.52-1.487.672-.48.22-1.205.166-1.684-.117-.24-.141-.872-.18-1.332-.054-.653.177-1.525.18-2.006-.009-.254-.1-1.289.028-2.182.317-.884.286-1.772.75-1.876.917-.323.52-1.1.605-1.75.3-.394-.185-1.321-.33-2.006-.304-.677.026-1.805.369-2.457.749-1.186.691-1.757-.24-1.218-1.507.296-.695.063-1.3-.463-1.417-.722-.16-1.866-.006-2.479.33-.6.328-1.176.993-1.252 1.395-.127.67-.544 1.383-1 1.636-.157.087-.264.293-.241.395.043.197.333.602.617.83.385.309.558.766.057 1.044-.221.123-.526.116-.939.03-.674-.14-1.488-.385-1.844-.56-.184-.09-.71-.052-1.086.11-.244.106-.372.532-.215.952.297.788.254 1.675-.218 2.045-.42.328-1.097.38-1.57.125-.103-.055-.21-.028-.241.033-.2.383-.817.92-1.414 1.261-.598.34-1.238.476-1.63.241-.06.336-.384.374-.734.302a4.016 4.016 0 0 1-.656-.22 20.08 20.08 0 0 1-1.973-.972c-1.374-.757-3.292-.849-4.187-.243-.955.646-1.818 1.742-1.898 2.342-.117.89-.665 1.818-1.296 2.106-.281.13-.454.445-.398.652.058.214.252.35.396.321.534-.104 1.166.048 1.467.4.122.14.486.352.76.43.105.028.238-.056.28-.214.101-.378.258-1.11.346-1.617.112-.641.638-1.43 1.204-1.814.714-.485 1.415-.671 1.638-.03.138.397-.143.928-.573 1.34-.195.187-.313.622-.24.902.046.175.268.28.52.203.273-.085.518-.134.703-.138a.66.66 0 0 1 .395.097.499.499 0 0 1 .154.685c-.115.197-.73.84-1.432 1.516-.7.674-1.674 1.385-2.215 1.605-.721.293-1.58-.157-1.955-.946-.172-.362-.38-.462-.46-.398-.202.166-.296.372-.31.35.221.394.09 1.038-.234 1.533-.282.431-.65.848-.895.974-.191.101-.688.36-1.067.556a1.205 1.205 0 0 0-.365.278c-.007.035.154.226.266.299.37.24.512.77.378 1.218-.153.513-.845.811-1.56.806-.295-.002-.692.41-.799.93-.103.505-.01.913-.003.914.239.058.828 0 1.244-.138.398-.13.862-.441.983-.632.218-.346.468-.666.634-.776.082-.053.514-.34 1.168-.777.736-.488 1.762-.383 2.306.261.494.587.763 1.265.508 1.697.096-.013.237-.032.37-.074.05-.015.066-.129-.089-.359-.398-.594-.574-1.29-.285-1.685.311-.427.91-.427 1.308-.07.292.261.693 1.081.964 1.904.186.568.607.974.817.948.207-.026.298-.149.258-.283-.13-.438-.068-.843.426-.898.275-.03.511.123.788.407.28.287.967.53 1.464.504.902-.048 1.563.61 1.36 1.45-.2.822-1.465 1.211-2.819 1.058-1.109-.124-2.436-.132-2.892-.027-.614.143-1.523.063-2.082-.184-.623-.275-1.124-.772-1.098-1.258-.007.138.037.178.01.17a1.577 1.577 0 0 0-.586-.036l-.832.082-1.082.108-.978.097c-.876.086-1.89.52-2.19.901-.376.48-1.223 1.725-1.87 2.753-.604.957-1.003 2.398-.888 3.125.118.749.76 1.933 1.405 2.574.603.598 2.348 1.043 3.806.93 1.81-.142 3.318.053 3.586.676.192.446.596 1.383.89 2.07.386.897.485 2.103.196 2.76-.174.4.06 2.423.56 4.33.47 1.795 1.225 3.464 1.392 3.5.222.048 1.414-.656 2.43-1.563 1.077-.963 2.157-2.266 2.365-2.824.277-.74 1.062-1.66 1.785-2.095.48-.29.987-1.579 1.03-2.799.053-1.492 1.141-3.51 2.444-4.55.986-.789 1.479-1.62 1.409-1.676-.32-.259-1.174-.432-1.826-.344-.933.126-2.375-.594-3.302-1.594-1.01-1.09-1.58-2.19-1.093-2.72.554-.604 1.553.119 2.517 1.352.65.833 2.008 1.226 2.964.862 1.066-.405 2.157-.996 2.342-1.232.08-.102.026-.314-.184-.462-.336-.238-.849-.437-1.068-.435-.542.003-1.21-.632-1.642-1.418-.488-.886-.682-1.667-.194-1.982.476-.306 1.07.128 1.568.817.28.388 1.49.989 2.62 1.26 1.332.317 2.678 1.017 3.06 1.649.308.509 1.137 1.918 1.837 3.122.332.572.678 1.091.965 1.453.053.068.104.13.15.182.112-.278.296-.774.423-1.259.256-.979 1.05-2.196 1.805-2.756.852-.631 2.11-.537 2.822.22.265.283.528.553.735.756.098.097.18.175.24.229.158.068.383.312.64.658.26.352.39.995.32 1.497-.034.25.331 1.145.816 1.865.186.275.384.517.568.698a4.874 4.874 0 0 0-.421-.93c-.55-.953-.943-1.76-.944-2.033-.002-.577.559-.719 1.057-.538.343.126.75.46.953.781.238-.147.377-.863.315-1.55-.089-.99.12-1.957.614-2.248.317-.187.991-.494 1.522-.694.408-.154.985-.657 1.23-1.08.222-.38.217-1.506-.053-2.412-.276-.926-.707-1.877-.867-2.012-.404-.34-.545-1.03-.364-1.588.218-.672.989-.926 1.67-.619.548.247 1.361 1.082 1.876 1.893.127.201.26.378.383.518a3.695 3.695 0 0 0-.224-.728c-.325-.744-.459-1.665-.268-2.145.196-.498.663-.913 1.127-.927.046-.001.488-.456.793-.977.317-.541.429-1.571.237-2.22-.222-.745-.582-1.735-.794-2.182-.15-.318-.48-.566-.643-.555-.786.051-1.085-.86-.917-1.877.149-.91.63-1.791 1.19-2.005.419-.16 1.083-.29 1.512-.299.25-.005.639-.19.801-.382.166-.196.311-.703.29-1.063-.043-.677.452-1.38 1.115-1.61.556-.192.943.195 1.066.795.09.438.064 1.04-.07 1.706-.23 1.142.126 2.976.782 4.007.334.526.683.986.97 1.286.044-.046.054-.139.062-.238zm-45.436 2.06c.187.393.57.594.804.5.415-.17 1.305-.82 1.929-1.42.206-.198.411-.402.595-.588-.55-.017-1.04-.357-1.182-.9-.107-.413-.038-.913.16-1.32-.214.27-.387.596-.431.85-.093.53-.255 1.289-.363 1.694-.167.625-.785 1.017-1.392.848a2.763 2.763 0 0 1-.484-.191c.142.144.267.323.364.528zm1.775 6.08c.049.129.126.305.235.468l.049.077a4.588 4.588 0 0 0-.284-.544zm.284.545c.078.132.136.269.172.405a8.77 8.77 0 0 0-.172-.405zm-5.173 1.719l1.088-.108.832-.083c.851-.084 1.598.151 1.564.81 0 .003.246.247.563.387.38.167 1.088.23 1.514.13.58-.134 1.995-.125 3.197.01.955.108 1.788-.149 1.843-.376.05-.21-.098-.357-.438-.34-.612.033-1.356-.185-1.862-.53-.13.414-.51.733-1.01.795-.73.09-1.48-.632-1.783-1.56a8.136 8.136 0 0 0-.163-.45c.141.54-.057 1.065-.61 1.238-.529.166-1.095.166-1.376-.104-.311-.297-.287-.803-.025-1.16-.047.064-.05.024-.085-.07a2.095 2.095 0 0 0-.35-.567c-.239-.283-.753-.336-1.12-.092-.658.439-1.088.724-1.17.778-.02.014-.22.269-.37.506-.2.316-.654.655-1.127.874l.888-.088zm-2.336.42a2.334 2.334 0 0 1-.623-.042c-.652-.158-.857-1.046-.668-1.97.186-.905.91-1.655 1.688-1.649.36.003.682-.136.69-.164a.386.386 0 0 0-.005-.205 1.943 1.943 0 0 1-.662-.79c-.206-.497.222-1.022.836-1.34l1.066-.556c.07-.035.356-.36.558-.669.16-.244.225-.562.202-.602-.256-.458.026-1.077.527-1.486a.95.95 0 0 1 .928-.173 1.502 1.502 0 0 1-.168-.164c-.065-.077-.369-.15-.61-.103-.63.125-1.262-.319-1.438-.968-.178-.656.23-1.401.89-1.706.313-.143.7-.796.78-1.406.119-.9 1.138-2.193 2.286-2.97 1.206-.815 3.479-.707 5.126.201.719.398 1.391.728 1.879.928l.211.082a.727.727 0 0 1 .318-.417c.362-.206.766.012 1.043.366.231-.103.451-.184.661-.303.46-.263.957-.697 1.063-.898.273-.522.936-.693 1.466-.407.16.087.452.064.587-.041.081-.064.105-.557-.07-1.021-.312-.834-.029-1.777.7-2.093.596-.259 1.386-.314 1.838-.094.213.105.705.262 1.197.387-.178-.248-.312-.508-.361-.728-.113-.514.196-1.105.684-1.376.188-.105.47-.586.551-1.016.133-.699.888-1.57 1.705-2.018.806-.442 2.173-.625 3.105-.42 1.127.25 1.597 1.474 1.097 2.649a2.51 2.51 0 0 0-.14.418c.854-.494 2.125-.88 2.952-.91.818-.033 1.885.134 2.424.388.282.132.564.101.603.04.257-.415 1.277-.948 2.363-1.299 1.08-.35 2.28-.498 2.789-.298.28.11.96.108 1.44-.023.677-.183 1.554-.13 2.026.148.23.137.646.168.85.074.33-.153.996-.453 1.497-.676.573-.255 2.146-.326 3.59-.189 1.45.137 2.898.445 3.328.74.412.286.855.817 1.017 1.23.212.535.04 1.157-.46 1.368-.261.11-.71.27-1.01.36-.013.003-.091.23-.04.51.075.415.291.965.452 1.175.335.438.272 1.297-.063 2.007-.293.622-.87 1.453-1.307 1.879-.252.244-.33.568-.26.661.3.4.564 1.724.652 3.063.096 1.43.002 2.637-.349 2.953-.573.517-1.39-.338-2.337-1.826-.779-1.225-1.182-3.295-.905-4.668.113-.557.134-1.043.071-1.347-.029-.142.02-.093.111-.125-.29.1-.53.44-.513.703.036.58-.174 1.316-.5 1.7-.329.39-.962.69-1.47.701a4.445 4.445 0 0 0-1.21.24c-.185.07-.52.682-.622 1.31-.051.308-.04.584.019.762.53.033 1.173.516 1.467 1.14.234.492.609 1.524.842 2.31.262.884.122 2.171-.323 2.93-.457.783-1.065 1.408-1.542 1.423-.058.002-.24.165-.317.358-.084.21.018.91.256 1.454.34.784.452 1.63.156 2.026-.295.397-.72.29-1.111-.03-.258-.21-.537-.544-.79-.944-.428-.676-1.127-1.393-1.485-1.555-.226-.101-.405-.042-.444.077-.075.232-.013.536.087.621.346.29.823 1.346 1.15 2.444.335 1.121.34 2.485-.031 3.123-.347.596-1.084 1.239-1.69 1.468-.487.183-1.117.47-1.382.627a1.477 1.477 0 0 0-.124.371 3.53 3.53 0 0 0-.052 1.022c.088.971-.103 1.952-.543 2.286-.458.346-1.09.31-1.405-.14.134.256.29.547.45.824.605 1.05.862 2.04.372 2.429-.556.445-1.34-.201-2.044-1.244-.601-.892-1.035-1.956-.961-2.493.04-.282-.043-.69-.152-.837-.115-.154-.298-.353-.234-.332-.183-.06-.616-.488-1.313-1.229-.396-.42-1.142-.476-1.63-.114-.586.435-1.266 1.475-1.471 2.261-.272 1.038-.63 1.88-.984 2.06-.565.285-1.27-.605-2.204-2.212-.697-1.2-1.523-2.605-1.828-3.108-.225-.373-1.38-.973-2.5-1.24-1.233-.295-2.52-.915-3.04-1.487.331.605.784 1.035.892 1.035.432-.004 1.115.262 1.593.6.601.424.798 1.21.373 1.753-.32.409-1.511 1.054-2.73 1.518-1.328.504-3.102-.008-3.993-1.15a5.982 5.982 0 0 0-.911-.954c.186.348.49.761.857 1.156.746.806 1.925 1.394 2.521 1.314.879-.119 1.977.105 2.511.536.786.633.008 1.943-1.412 3.078-1.105.883-2.064 2.66-2.107 3.88-.053 1.492-.668 3.056-1.464 3.537-.553.334-1.203 1.095-1.407 1.64-.272.728-1.431 2.127-2.609 3.18-1.245 1.113-2.592 1.908-3.219 1.772-.686-.147-1.49-1.921-2.073-4.153-.554-2.118-.802-4.255-.513-4.917.175-.4.097-1.358-.199-2.045-.294-.687-.697-1.624-.89-2.07.02.044-.258-.056-.677-.11-.554-.072-1.275-.082-2.013-.025-1.695.133-3.692-.376-4.51-1.188-.774-.77-1.51-2.126-1.66-3.072-.152-.966.306-2.617 1.016-3.745.662-1.052 1.525-2.32 1.924-2.829.28-.354.822-.684 1.445-.917zm1.112-.2a3.11 3.11 0 0 0 .336-.132l-.084.008c-.452.045-.928.16-1.364.324a4.365 4.365 0 0 0 1.112-.2zm15.265-22.55c-.625.079-1.44.771-1.745 1.512-.302.735-.339 1.557-.187 1.717.156.164.336.195.38.155.13-.12.206-.327.19-.375-.12-.373.036-1.07.32-1.663.275-.577.946-1.158 1.58-1.385a5.186 5.186 0 0 0-.538.039zm-.94 4.043c-.45.42-1.181.294-1.644-.194-.468-.492-.417-1.65.007-2.68.422-1.025 1.5-1.94 2.465-2.062.994-.124 1.846-.036 2.087.396.33.587-.261 1.055-1.065 1.283-.421.12-.958.567-1.14.948-.193.403-.305.906-.275 1 .135.419-.07.97-.435 1.31zM38.263 35.324a3101.938 3101.938 0 0 1-.676-1.693c-.08.366-.17 1.034-.19 1.682-.014.431.05.773.152.945.033.055-.022.037-.013.032l.864-.518a2.577 2.577 0 0 0-.137-.448zm.836-.334c.274.686.355 1.203-.049 1.442l-1.051.63c-.463.276-.949.117-1.223-.343-.204-.341-.298-.846-.28-1.434.037-1.174.23-2.248.533-2.559.513-.528 1.136-.08 1.422.637a546.523 546.523 0 0 0 .648 1.627zm15.336 25.832c-.34.26-.75.944-.868 1.468-.105.47.022 1.024.211 1.172.03.024.205-.094.355-.511.22-.615.395-1.56.383-2.058-.004-.199.05-.17-.08-.071zm.545 2.432c-.326.908-1.103 1.433-1.758.916-.5-.392-.707-1.299-.533-2.077.161-.722.683-1.593 1.2-1.987.729-.557 1.506-.151 1.527.766.014.616-.18 1.669-.436 2.382z" mask="url(#b)"/>
        <path fill="#F66F26" fill-rule="nonzero" d="M74.25 45c0 16.153-13.097 29.25-29.25 29.25-12.802 0-24.002-8.3-27.853-20.298A29.148 29.148 0 0 1 15.75 45c0-16.154 13.094-29.25 29.25-29.25a29.1 29.1 0 0 1 16.862 5.349C69.572 26.546 74.25 35.379 74.25 45h.9c0-9.916-4.823-19.022-12.768-24.636A30 30 0 0 0 45 14.85c-16.653 0-30.15 13.499-30.15 30.15 0 3.172.49 6.275 1.44 9.228C20.26 66.596 31.805 75.15 45 75.15c16.65 0 30.15-13.5 30.15-30.15h-.9z"/>
    </g>
</svg>
