<svg xmlns="http://www.w3.org/2000/svg" width="90" height="90" viewBox="0 0 90 90">
    <g fill="none" fill-rule="evenodd">
        <path fill="#FBC5A8" d="M71.55 25.737c0-1.054-.732-1.887-1.604-1.887H20.054c-.872 0-1.604.833-1.604 1.887V63.45h53.1V25.737z"/>
        <path fill="#F66F26" fill-rule="nonzero" d="M69.66 19.35c3.036 0 5.49 2.552 5.49 5.69V60.3a.45.45 0 0 1-.45.45H15.3a.45.45 0 0 1-.45-.45V25.04c0-3.139 2.454-5.69 5.49-5.69h49.32zm4.59 5.69c0-2.649-2.06-4.79-4.59-4.79H20.34c-2.53 0-4.59 2.14-4.59 4.79v34.81h58.5V25.04z"/>
        <path fill="#F66F26" fill-rule="nonzero" d="M69.946 22.95c1.397 0 2.504 1.26 2.504 2.787V63.9a.45.45 0 0 1-.45.45H18a.45.45 0 0 1-.45-.45V25.737c0-1.527 1.107-2.787 2.504-2.787h49.892zm1.604 2.787c0-1.054-.732-1.887-1.604-1.887H20.054c-.872 0-1.604.833-1.604 1.887V63.45h53.1V25.737z"/>
        <path fill="#FFF" d="M82.8 59.85a.45.45 0 0 1 .45.45c0 2.718-1.886 4.95-4.254 4.95H11.004c-2.368 0-4.254-2.232-4.254-4.95a.45.45 0 0 1 .45-.45h75.6z"/>
        <path fill="#F66F26" fill-rule="nonzero" d="M82.8 59.85a.45.45 0 0 1 .45.45c0 2.718-1.886 4.95-4.254 4.95H11.004c-2.368 0-4.254-2.232-4.254-4.95a.45.45 0 0 1 .45-.45h75.6zm-75.13.9c.187 2.036 1.624 3.6 3.334 3.6h67.992c1.71 0 3.147-1.564 3.334-3.6H7.67z"/>
        <path fill="#FBC5A8" d="M50.09 63h-9.28c-1.42 0-2.56-1.215-2.56-2.7a.45.45 0 0 1 .45-.45h13.5a.45.45 0 0 1 .45.45c0 1.485-1.139 2.7-2.56 2.7z"/>
        <path fill="#F66F26" fill-rule="nonzero" d="M40.81 62.1h9.28c.77 0 1.423-.57 1.608-1.35H39.202c.185.78.84 1.35 1.607 1.35zm9.28.9h-9.28c-1.42 0-2.56-1.215-2.56-2.7a.45.45 0 0 1 .45-.45h13.5a.45.45 0 0 1 .45.45c0 1.485-1.139 2.7-2.56 2.7z"/>
        <path fill="#FFF" d="M55.8 53.1a.9.9 0 0 1-.9-.9V38.7a.9.9 0 0 1 .9-.9h3.6a.9.9 0 0 1 .9.9v13.5a.9.9 0 0 1-.9.9h-3.6zM41.4 53.1a.9.9 0 0 1-.9-.9V41.4a.9.9 0 0 1 .9-.9H45a.9.9 0 0 1 .9.9v10.8a.9.9 0 0 1-.9.9h-3.6zM34.2 53.1a.9.9 0 0 1-.9-.9v-6.3a.9.9 0 0 1 .9-.9h3.6a.9.9 0 0 1 .9.9v6.3a.9.9 0 0 1-.9.9h-3.6zM48.6 53.1a.9.9 0 0 1-.9-.9v-8.1a.9.9 0 0 1 .9-.9h3.6a.9.9 0 0 1 .9.9v8.1a.9.9 0 0 1-.9.9h-3.6z"/>
        <path fill="#F66F26" fill-rule="nonzero" d="M55.8 52.2h3.6V38.7h-3.6v13.5zm0 .9a.9.9 0 0 1-.9-.9V38.7a.9.9 0 0 1 .9-.9h3.6a.9.9 0 0 1 .9.9v13.5a.9.9 0 0 1-.9.9h-3.6zM41.4 52.2H45V41.4h-3.6v10.8zm0 .9a.9.9 0 0 1-.9-.9V41.4a.9.9 0 0 1 .9-.9H45a.9.9 0 0 1 .9.9v10.8a.9.9 0 0 1-.9.9h-3.6zM34.2 52.2h3.6v-6.3h-3.6v6.3zm0 .9a.9.9 0 0 1-.9-.9v-6.3a.9.9 0 0 1 .9-.9h3.6a.9.9 0 0 1 .9.9v6.3a.9.9 0 0 1-.9.9h-3.6zM48.6 52.2h3.6v-8.1h-3.6v8.1zm0 .9a.9.9 0 0 1-.9-.9v-8.1a.9.9 0 0 1 .9-.9h3.6a.9.9 0 0 1 .9.9v8.1a.9.9 0 0 1-.9.9h-3.6z"/>
        <path fill="#F66F26" fill-rule="nonzero" d="M30.6 33.75a.45.45 0 0 0-.9 0v22.051l31.05-.074a.45.45 0 0 0-.001-.9l-30.15.072V33.75z"/>
        <path fill="#F66F26" fill-rule="nonzero" d="M35.298 38.846c9.052 0 17.51-3.718 23.623-10.163a.45.45 0 1 0-.653-.619c-5.945 6.268-14.168 9.882-22.97 9.882a.45.45 0 0 0 0 .9z"/>
        <path fill="#F66F26" fill-rule="nonzero" d="M58.165 31.489a.45.45 0 0 0 .9 0V28.35a.45.45 0 0 0-.45-.45h-3.14a.45.45 0 0 0 0 .9h2.69v2.689z"/>
    </g>
</svg>
