<svg xmlns="http://www.w3.org/2000/svg" width="90" height="90" viewBox="0 0 90 90">
    <g fill="none" fill-rule="evenodd">
        <path fill="#FBC5A8" d="M21.16 65.318c.347-8.094 7.04-14.575 15.223-14.575h10.6c8.184 0 14.876 6.48 15.223 14.575l-.04.028a35.188 35.188 0 0 1-41.006-.028"/>
        <path fill="#F66F26" fill-rule="nonzero" d="M61.744 65.095c-.46-7.766-6.926-13.902-14.761-13.902h-10.6c-7.835 0-14.302 6.136-14.76 13.902a34.737 34.737 0 0 0 40.12 0zM20.71 65.3c.358-8.361 7.273-15.006 15.672-15.006h10.6c8.399 0 15.314 6.645 15.672 15.006l.01.243-.196.141c-12.46 8.92-29.164 8.91-41.571 0l-.198-.14.01-.244z"/>
        <path fill="#FFF" d="M41.683 54.718c-4.265 0-5.71-2.785-5.963-3.359v-7.241h11.925v7.241c-.247.569-1.692 3.359-5.962 3.359"/>
        <path fill="#F66F26" fill-rule="nonzero" d="M37.484 52.908c1.034.857 2.41 1.36 4.199 1.36 1.79 0 3.168-.504 4.202-1.362.644-.535 1.07-1.13 1.31-1.644v-6.694H36.17v6.693c.247.523.67 1.113 1.314 1.647zm4.199 2.26c-2 0-3.579-.577-4.773-1.568-.796-.66-1.31-1.398-1.601-2.059l-.039-.182v-7.691h12.825v7.691l-.037.18c-.284.653-.801 1.397-1.598 2.06-1.195.99-2.776 1.569-4.777 1.569z"/>
        <path fill="#FFF" d="M51.15 32.854a3.787 3.787 0 1 0 0 7.573c2.09 0 3.783-2.96 3.783-5.052 0-2.086-1.693-2.52-3.783-2.52"/>
        <path fill="#F66F26" fill-rule="nonzero" d="M51.15 32.404c2.75 0 4.233.801 4.233 2.971 0 2.554-2.015 5.502-4.233 5.502a4.237 4.237 0 0 1 0-8.473zm0 .9a3.337 3.337 0 1 0 0 6.673c1.632 0 3.333-2.489 3.333-4.602 0-1.523-1.014-2.07-3.333-2.07z"/>
        <path fill="#FFF" d="M32.216 32.854c-2.09 0-3.784.435-3.784 2.527 0 2.091 1.693 5.046 3.784 5.046a3.786 3.786 0 1 0 0-7.573"/>
        <path fill="#F66F26" fill-rule="nonzero" d="M32.216 32.404a4.236 4.236 0 1 1 0 8.473c-2.219 0-4.234-2.944-4.234-5.496 0-2.175 1.483-2.977 4.234-2.977zm0 .9c-2.32 0-3.334.549-3.334 2.077 0 2.112 1.7 4.596 3.334 4.596a3.336 3.336 0 1 0 0-6.673z"/>
        <path fill="#FBC5A8" d="M46.994 14.761a5.31 5.31 0 0 1-5.311 5.311 5.31 5.31 0 1 1 0-10.622 5.311 5.311 0 0 1 5.311 5.311"/>
        <path fill="#F66F26" fill-rule="nonzero" d="M46.544 14.761a4.861 4.861 0 1 0-9.722 0 4.861 4.861 0 0 0 9.722 0zm.9 0a5.76 5.76 0 0 1-5.761 5.761 5.76 5.76 0 1 1 0-11.522 5.761 5.761 0 0 1 5.761 5.761z"/>
        <path fill="#FFF" d="M41.683 49.418c-.802 0-1.553-.29-2.174-.833l-.124-.11-.15-.035a9.926 9.926 0 0 1-7.49-9.622v-12.32a4.392 4.392 0 0 1 4.39-4.389h11.097a4.394 4.394 0 0 1 4.388 4.39v12.319a9.925 9.925 0 0 1-7.488 9.622l-.15.036-.125.109a3.264 3.264 0 0 1-2.174.833"/>
        <path fill="#F66F26" fill-rule="nonzero" d="M41.683 48.968c.69 0 1.336-.248 1.877-.722l.208-.182.108-.026.144-.034a9.475 9.475 0 0 0 7.15-9.186v-12.32a3.944 3.944 0 0 0-3.938-3.939H36.134a3.942 3.942 0 0 0-3.94 3.94v12.319a9.474 9.474 0 0 0 7.145 9.184l.259.062.084.073.123.11a2.813 2.813 0 0 0 1.878.721zm0 .9c-.91 0-1.767-.329-2.47-.945l-.09-.047a10.376 10.376 0 0 1-7.828-10.058v-12.32a4.842 4.842 0 0 1 4.84-4.839h11.097a4.844 4.844 0 0 1 4.838 4.84v12.319c0 4.75-3.218 8.884-7.834 10.06-.786.661-1.642.99-2.553.99z"/>
        <path fill="#FBC5A8" d="M51.62 37.492v-4.637c0-4.819-4.016-7.397-4.192-7.506l-.528-.33-.361.506c-.115.161-2.807 3.825-8.635 3.825-1.521 0-6.159 0-6.159 4.83v3.312h-.238c-.574-1.298-2.412-5.74-2.412-9.524 0-6.987 4.792-11.677 11.926-11.677 5.087 0 6.615 3.427 6.677 3.572l.175.398.435.005c2.216 0 5.962 1.537 5.962 7.31 0 3.472-1.863 8.467-2.437 9.916h-.212z"/>
        <path fill="#F66F26" fill-rule="nonzero" d="M31.745 37.042h-.238v.45l.238-.105v-.345zm20.088.45v-.45h-.212v.366l.212.084zM31.295 34.18c0-2.738 1.379-4.31 3.646-4.949.947-.266 1.755-.33 2.963-.33 2.466 0 4.529-.665 6.212-1.777 1.027-.68 1.72-1.385 2.056-1.86l.609-.851.359.225.524.33c.594.366 1.46 1.082 2.275 2.085 1.333 1.637 2.132 3.576 2.132 5.803v2.724c1.01-2.853 1.75-5.795 1.75-8.004 0-4.575-2.507-6.859-5.519-6.859l-.724-.009-.116-.264-.178-.403c-.184-.43-.61-1.06-1.332-1.675-1.19-1.016-2.807-1.624-4.931-1.624-6.888 0-11.476 4.492-11.476 11.227 0 2.433.731 5.232 1.75 7.845v-1.634zm17.013-14.363c3.485 0 6.412 2.667 6.412 7.76 0 2.815-1.098 6.623-2.468 10.082l-.113.284h-.968v-5.087c0-2.003-.719-3.748-1.93-5.235-.746-.917-1.535-1.57-2.053-1.89l-.168-.105-.114.16c-.397.56-1.166 1.343-2.294 2.088-1.826 1.207-4.059 1.927-6.708 1.927-1.13 0-1.874.059-2.72.297-1.9.535-2.989 1.776-2.989 4.082v3.763h-.981l-.119-.268c-1.378-3.116-2.45-6.64-2.45-9.706 0-7.237 4.995-12.127 12.376-12.127 2.34 0 4.163.686 5.515 1.84.838.714 1.34 1.456 1.573 2l.06.134.139.001z"/>
        <path fill="#FFF" d="M70.828 79.389l-7.484-6.631-7.325 6.63v-19.11h14.809z"/>
        <path fill="#F66F26" fill-rule="nonzero" d="M70.378 60.728h-13.91v17.646l6.872-6.22 7.038 6.235v-17.66zm-14.81 19.675V59.828h15.71v20.56l-7.931-7.026-7.778 7.041z"/>
        <path fill="#FBC5A8" d="M63.31 69.63l-5.256 4.758V62.604h10.739v11.883z"/>
        <path fill="#FFF" d="M75.219 54.823c0 6.515-5.282 11.796-11.796 11.796-6.514 0-11.795-5.281-11.795-11.796 0-6.514 5.281-11.794 11.795-11.794s11.796 5.28 11.796 11.794"/>
        <path fill="#F66F26" fill-rule="nonzero" d="M74.769 54.823c0-6.265-5.08-11.344-11.346-11.344s-11.345 5.079-11.345 11.344c0 6.266 5.08 11.346 11.345 11.346 6.266 0 11.346-5.08 11.346-11.346zm.9 0c0 6.763-5.483 12.246-12.246 12.246-6.763 0-12.245-5.483-12.245-12.246 0-6.762 5.482-12.244 12.245-12.244 6.763 0 12.246 5.482 12.246 12.244z"/>
        <path fill="#FBC5A8" d="M66.423 60.143a.686.686 0 0 1-.32-.08l-2.58-1.364a.209.209 0 0 0-.199 0l-2.58 1.363a.677.677 0 0 1-.72-.05.676.676 0 0 1-.272-.668l.49-2.872a.252.252 0 0 0-.072-.224l-2.072-2.03a.675.675 0 0 1-.171-.697.676.676 0 0 1 .548-.462l2.86-.418a.256.256 0 0 0 .192-.14l1.283-2.615a.679.679 0 0 1 .613-.38c.262 0 .497.145.612.38l1.284 2.615c.037.075.11.127.193.14l2.86.418a.673.673 0 0 1 .548.462.673.673 0 0 1-.17.696l-2.073 2.031a.255.255 0 0 0-.073.224l.49 2.872a.676.676 0 0 1-.272.667.672.672 0 0 1-.399.132"/>
        <path fill="#F66F26" fill-rule="nonzero" d="M66.423 59.693a.226.226 0 0 0 .136-.047.226.226 0 0 0 .092-.226l-.491-2.874a.704.704 0 0 1 .202-.62l2.073-2.031a.224.224 0 0 0 .056-.236.223.223 0 0 0-.184-.155l-2.862-.418a.707.707 0 0 1-.53-.387l-1.284-2.615a.227.227 0 0 0-.208-.129.228.228 0 0 0-.209.13l-1.283 2.613a.707.707 0 0 1-.532.388l-2.859.418a.227.227 0 0 0-.185.157.225.225 0 0 0 .058.235l2.07 2.03a.701.701 0 0 1 .202.622l-.49 2.872c-.014.09.02.174.093.227.074.053.165.06.245.018l2.576-1.361a.657.657 0 0 1 .623-.003l2.581 1.363a.236.236 0 0 0 .11.029zm-.7-7.39a.193.193 0 0 0-.146-.107l.1.014.046.092zm1.815 6.966c.073.427-.101.854-.45 1.105a1.122 1.122 0 0 1-1.195.086l-2.47-1.304-2.47 1.304c-.382.203-.842.17-1.192-.083a1.126 1.126 0 0 1-.452-1.108l.472-2.772-1.997-1.957a1.124 1.124 0 0 1-.285-1.157c.133-.41.484-.707.911-.77l2.758-.402 1.239-2.524a1.128 1.128 0 0 1 1.016-.632c.434 0 .825.244 1.016.633l1.238 2.522 2.76.403c.428.063.778.359.91.768.135.41.026.856-.283 1.157l-2 1.96.474 2.77z"/>
        <path fill="#FBC5A8" fill-rule="nonzero" d="M63.873 37.632v-3.865a.45.45 0 0 0-.9 0v3.865a.45.45 0 0 0 .9 0zM69.726 38.823l1.322-3.631a.45.45 0 0 0-.846-.308l-1.322 3.631a.45.45 0 0 0 .846.308zM74.819 41.943l2.484-2.96a.45.45 0 1 0-.69-.578l-2.484 2.96a.45.45 0 1 0 .69.578zM78.537 46.617l3.347-1.93a.45.45 0 1 0-.45-.78l-3.347 1.93a.45.45 0 1 0 .45.78zM80.432 52.282l3.806-.672a.45.45 0 0 0-.156-.886l-3.806.671a.45.45 0 0 0 .156.887z"/>
        <path fill="#F66F26" d="M38.553 35.81a.976.976 0 1 1-1.951 0 .976.976 0 0 1 1.951 0"/>
        <path fill="#F66F26" fill-rule="nonzero" d="M37.988 32.573a1.68 1.68 0 0 0-.217-.06 2.171 2.171 0 0 0-1.461.173c-.365.185-.68.48-.928.892a.45.45 0 1 0 .77.465c.163-.269.352-.447.564-.554a1.298 1.298 0 0 1 .962-.07.45.45 0 0 0 .31-.846z"/>
        <path fill="#F66F26" d="M44.992 35.81a.975.975 0 1 0 1.95 0 .975.975 0 0 0-1.95 0"/>
        <path fill="#F66F26" fill-rule="nonzero" d="M45.867 33.418a1.298 1.298 0 0 1 .962.07c.212.108.4.286.563.555a.45.45 0 1 0 .77-.465c-.248-.412-.563-.707-.927-.892a2.171 2.171 0 0 0-1.462-.173 1.68 1.68 0 0 0-.217.06.45.45 0 0 0 .31.845zM42.74 39.068c0-.074.004-.079-.079-.048-.171.064-.436.102-.74.102-.303 0-.568-.038-.74-.102-.082-.03-.078-.026-.078.048a.45.45 0 0 0-.9 0c0 .679.74.954 1.718.954.979 0 1.719-.275 1.719-.954a.45.45 0 0 0-.9 0zM38.353 42.17a.45.45 0 0 1 .42-.612h6.297a.45.45 0 0 1 .42.612c-.708 1.843-2.044 3.034-3.568 3.034-1.525 0-2.861-1.191-3.569-3.035zm3.569 2.134c.943 0 1.845-.685 2.453-1.846h-4.907c.608 1.161 1.51 1.846 2.454 1.846z"/>
    </g>
</svg>
