<svg xmlns="http://www.w3.org/2000/svg" width="94" height="55" viewBox="0 0 94 55">
    <g fill="none" fill-rule="evenodd">
        <path d="M52.049 10.008c4.023-1.964 8.697-3.09 13.68-3.09 15.03 0 27.26 10.247 27.26 22.848 0 5.258-2.188 10.386-6.152 14.45l-.507.52.31.657c1.72 3.53 3.49 6.62 5.292 9.217-4.432-.34-9.395-1.729-14.22-3.984l-.401-.187-.417.154a31.549 31.549 0 0 1-11.165 2.021c-8.645 0-16.363-3.39-21.361-8.67"/>
        <path fill="#F66F26" fill-rule="nonzero" d="M77.85 50.336l-.402-.186a.326.326 0 0 0-.25-.01l-.417.154a31.226 31.226 0 0 1-11.052 2c-8.328 0-16.042-3.199-21.126-8.568l-.47.438c5.207 5.5 13.092 8.77 21.596 8.77 3.891 0 7.682-.687 11.28-2.041l.287-.107.28.13c4.853 2.268 9.854 3.669 14.33 4.013a.32.32 0 0 0 .292-.5c-1.78-2.565-3.542-5.636-5.267-9.175l-.214-.454.352-.361c4.024-4.126 6.242-9.334 6.242-14.673 0-12.79-12.383-23.169-27.582-23.169-4.918 0-9.653 1.088-13.823 3.124l.285.574c4.081-1.992 8.72-3.058 13.538-3.058 14.864 0 26.936 10.119 26.936 22.529 0 5.17-2.15 10.22-6.06 14.228l-.508.52a.318.318 0 0 0-.06.358l.31.657c1.617 3.317 3.266 6.226 4.935 8.702-4.22-.42-8.89-1.771-13.432-3.895z"/>
        <path fill="#F66F26" d="M8.803 49.163c4.742-7.47 9.545-5.209 12.487-4.743 2.942.464 4.788.372 4.788.372 16.118 0 16.9-10.572 16.9-10.572h-2.19c-2.598 0-5.164-2.388-8.67-6.386-3.504-4-7.855-4.558-7.855-4.558V13.015C13.28 16.07 5.705 22.335.834 30.48l-.08.41a22.03 22.03 0 0 1-.431-4.328C.323 12.09 14.369.32 31.632.32s31.31 11.77 31.31 26.243c0 14.473-14.047 26.243-31.31 26.243-4.43 0-6.46.05-12.823-2.32-6.363-2.371-8.657 3.361-12.463 4.124 0 0 1.53-3.988 2.457-5.447M25.2 31.266s1.65-1.755 3.462-1.568c2.136.218 3.203 2.042 3.203 2.042s-.81 1.569-3.128 1.423c-2.32-.146-3.537-1.897-3.537-1.897zm5.278-7.82a17.12 17.12 0 0 0-3.408-1.693l-.676-.252c.245-.908 1.573-5.365 4.084-5.65v7.596z"/>
        <path fill="#FBC5A8" d="M81.633 31.955c0 1.494-1.223 2.706-2.732 2.706-1.508 0-2.731-1.212-2.731-2.706 0-1.495 1.223-2.707 2.73-2.707 1.51 0 2.733 1.212 2.733 2.707"/>
        <path fill="#F66F26" fill-rule="nonzero" d="M81.31 31.955a2.398 2.398 0 0 0-2.41-2.387 2.398 2.398 0 0 0-2.407 2.387A2.398 2.398 0 0 0 78.9 34.34c1.33 0 2.409-1.068 2.409-2.386zm.646 0c0 1.671-1.368 3.026-3.055 3.026s-3.054-1.355-3.054-3.026c0-1.672 1.367-3.027 3.054-3.027 1.687 0 3.055 1.355 3.055 3.027z"/>
        <path fill="#FBC5A8" d="M71.994 31.955c0 1.494-1.224 2.706-2.733 2.706-1.508 0-2.731-1.212-2.731-2.706 0-1.495 1.223-2.707 2.731-2.707 1.51 0 2.733 1.212 2.733 2.707"/>
        <path fill="#F66F26" fill-rule="nonzero" d="M71.67 31.955c0-1.318-1.078-2.387-2.409-2.387a2.398 2.398 0 0 0-2.408 2.387 2.398 2.398 0 0 0 2.408 2.386c1.33 0 2.41-1.069 2.41-2.386zm.647 0c0 1.67-1.368 3.026-3.056 3.026-1.686 0-3.054-1.355-3.054-3.026 0-1.672 1.368-3.027 3.054-3.027 1.688 0 3.056 1.355 3.056 3.027z"/>
    </g>
</svg>
