<svg xmlns="http://www.w3.org/2000/svg" xmlns:xlink="http://www.w3.org/1999/xlink" width="315" height="110" viewBox="0 0 315 110">
    <defs>
        <filter id="a" width="123.9%" height="151.5%" x="-12%" y="-25.8%" filterUnits="objectBoundingBox">
            <feGaussianBlur in="SourceGraphic" stdDeviation="2.497"/>
        </filter>
        <linearGradient id="d" x1="50%" x2="50%" y1="0%" y2="100%">
            <stop offset="0%" stop-color="#F69626"/>
            <stop offset="100%" stop-color="#F66F26"/>
        </linearGradient>
        <path id="c" d="M169.272 51.306L146.78 27.315a7 7 0 0 0-5.107-2.212H9.828a4 4 0 0 0-3.985 4.344l4.206 48.7a4 4 0 0 0 3.782 3.651l127.633 6.49a7 7 0 0 0 5.462-2.203l22.346-23.836a8 8 0 0 0 0-10.943z"/>
        <filter id="b" width="126.6%" height="169.6%" x="-16.3%" y="-28.5%" filterUnits="objectBoundingBox">
            <feOffset dx="-5" dy="4" in="SourceAlpha" result="shadowOffsetOuter1"/>
            <feGaussianBlur in="shadowOffsetOuter1" result="shadowBlurOuter1" stdDeviation="6.5"/>
            <feColorMatrix in="shadowBlurOuter1" values="0 0 0 0 0 0 0 0 0 0 0 0 0 0 0 0 0 0 0.2 0"/>
        </filter>
        <path id="e" d="M148.363 51.258a5 5 0 1 1 10 0 5 5 0 0 1-10 0zm20.933-5.91l-22.492-23.992a7 7 0 0 0-5.107-2.212H9.492a4 4 0 0 0-4 4v55.35a4 4 0 0 0 4 4h132.205a7 7 0 0 0 5.107-2.212l22.492-23.991a8 8 0 0 0 0-10.943z"/>
        <filter id="f" width="104.2%" height="111%" x="-2.1%" y="-3.9%" filterUnits="objectBoundingBox">
            <feOffset dy="1" in="SourceAlpha" result="shadowOffsetOuter1"/>
            <feGaussianBlur in="shadowOffsetOuter1" result="shadowBlurOuter1" stdDeviation="1"/>
            <feColorMatrix in="shadowBlurOuter1" values="0 0 0 0 0 0 0 0 0 0 0 0 0 0 0 0 0 0 0.3 0"/>
        </filter>
        <path id="h" d="M152.425 35.339c3.201.864 5.108 4.158 4.258 7.356a5.97 5.97 0 0 1-7.337 4.225c-3.201-.865-5.108-4.158-4.258-7.356a5.97 5.97 0 0 1 7.337-4.225z"/>
        <filter id="g" width="138.6%" height="138.6%" x="-19.3%" y="-19.3%" filterUnits="objectBoundingBox">
            <feMorphology in="SourceAlpha" operator="dilate" radius="1.815" result="shadowSpreadOuter1"/>
            <feOffset in="shadowSpreadOuter1" result="shadowOffsetOuter1"/>
            <feMorphology in="SourceAlpha" radius="1.815" result="shadowInner"/>
            <feOffset in="shadowInner" result="shadowInner"/>
            <feComposite in="shadowOffsetOuter1" in2="shadowInner" operator="out" result="shadowOffsetOuter1"/>
            <feColorMatrix in="shadowOffsetOuter1" values="0 0 0 0 0 0 0 0 0 0 0 0 0 0 0 0 0 0 0.108610734 0"/>
        </filter>
        <radialGradient id="i" cx="20.657%" cy="35.854%" r="93.274%" fx="20.657%" fy="35.854%" gradientTransform="scale(-.68915 -1) rotate(-57.858 -.695 .458)">
            <stop offset="0%" stop-color="#DBDBDB"/>
            <stop offset="5.714%" stop-color="#DBDBDB"/>
            <stop offset="5.841%" stop-color="#DBDBDB"/>
            <stop offset="100%" stop-color="#E6E6E6"/>
        </radialGradient>
        <linearGradient id="j" x1="94.769%" x2="11.874%" y1="61.992%" y2="27.315%">
            <stop offset="0%" stop-color="#E1E1E1"/>
            <stop offset="100%" stop-color="#6D6D6D"/>
        </linearGradient>
        <linearGradient id="k" x1="0%" x2="60.217%" y1="73.888%" y2="9.743%">
            <stop offset="0%" stop-color="#FFF"/>
            <stop offset="100%" stop-color="#FFF" stop-opacity=".029"/>
            <stop offset="100%" stop-color="#FFF" stop-opacity="0"/>
        </linearGradient>
    </defs>
    <g fill="none" fill-rule="evenodd">
        <path fill="#D0D0D0" d="M160.658 45.836l1.12-1.1.36-.352c29.125 5.682 46.195 6.134 51.318 1.589.908-.804 1.307-1.506 1.22-2.146-.211-1.555-3.306-3.166-6.298-4.724-2.6-1.354-5.547-2.887-7.535-4.786-1.345-1.285-2.307-2.679-3.236-4.026-2.957-4.287-5.508-7.99-19.37-7.167-17.984 1.069-22.854 15.872-22.901 16.022-.131.415-.382.634-.674 1.363-.445-.123-1.068-1.39-.938-1.803.05-.16 5.263-16.004 24.406-17.143 14.839-.883 17.917 3.574 20.89 7.884.884 1.281 1.798 2.606 3.026 3.779 1.817 1.735 4.528 3.147 7.15 4.512 3.664 1.908 6.828 3.555 7.146 5.892.157 1.167-.408 2.304-1.727 3.475-2.78 2.467-8.546 3.419-15.792 3.42-11.243 0-25.395-2.199-38.165-4.69z" filter="url(#a)" transform="rotate(-6 340.583 -679.416)"/>
        <g transform="rotate(-7 129.116 -546.608)">
            <use fill="#000" filter="url(#b)" xlink:href="#c"/>
            <use fill="url(#d)" xlink:href="#c"/>
        </g>
        <g transform="rotate(-7 177.84 -549.39)">
            <use fill="#000" filter="url(#f)" xlink:href="#e"/>
            <use fill="url(#d)" xlink:href="#e"/>
        </g>
        <g transform="rotate(7 121.975 660.445)">
            <use fill="#000" filter="url(#g)" xlink:href="#h"/>
            <use stroke-width="3.63" xlink:href="#h"/>
            <use stroke-width="4.63" xlink:href="#h"/>
        </g>
        <path fill="url(#i)" d="M160.777 44.155l1.86-2.094c29.126 8.496 44.082 8.686 49.205 1.89.907-1.203 1.306-2.253 1.22-3.21-.212-2.325-3.306-4.734-6.299-7.064-2.6-2.024-5.547-4.318-7.534-7.157-1.346-1.922-2.308-4.006-3.236-6.02-2.957-6.412-5.509-11.948-19.37-10.719-17.984 1.599-23.398 22.786-23.443 23.212-.044.426.076.42-.129 1.53-.19-.078-1.081-.398-1.299-1.531-.218-1.134.02-1.42.094-1.773.05-.24 5.526-22.07 24.67-23.772 14.838-1.32 17.916 5.345 20.89 11.79.883 1.916 1.798 3.897 3.025 5.65 1.817 2.597 4.529 4.708 7.151 6.75 3.664 2.852 6.827 5.315 7.145 8.81.158 1.746-.407 3.446-1.727 5.197-2.78 3.689-8.546 5.113-15.792 5.113-11.243 0-23.662-2.877-36.431-6.602z" transform="rotate(-6 337.553 -694.705)"/>
        <path fill="url(#j)" d="M166.13 46.304c1.526.11 2.986.2 4.378.271 1.392.07 2.872.13 4.438.176l-.003 2.467c-2.087-.037-3.919-.089-5.493-.155a146.009 146.009 0 0 1-4.685-.271l1.365-2.488z" opacity=".3" transform="rotate(7 121.975 660.445)"/>
        <path fill="url(#k)" d="M155.098 41.167c-1.126-.175-1.777-1.056-1.951-2.644-.175-1.587.017-3.343.575-5.267l1.699 1.217c-.358 2.72-.536 4.382-.533 4.989.004.606.073 1.174.21 1.705z" opacity=".271" transform="rotate(7 121.975 660.445)"/>
        <text fill="#FFF" font-family="Montserrat-Bold, Montserrat" font-size="40" font-weight="bold" letter-spacing=".6" transform="rotate(-7 154 56.5)">
            <tspan x="105.2" y="71">S</tspan> <tspan x="131.64" y="71">ave</tspan>
        </text>
    </g>
</svg>
