<svg xmlns="http://www.w3.org/2000/svg" width="216" height="40" viewBox="0 0 216 40">
    <defs>
        <linearGradient id="a" x1="51.689%" x2="12.896%" y1="45.081%" y2="83.872%">
            <stop offset="0%" stop-color="#F58220"/>
            <stop offset="67.09%" stop-color="#E84D23"/>
            <stop offset="100%" stop-color="#D6330D"/>
        </linearGradient>
        <linearGradient id="b" x1="50.007%" x2="50.007%" y1="11.954%" y2="104.356%">
            <stop offset="19.74%" stop-color="#FFF"/>
            <stop offset="100%" stop-color="#FFF" stop-opacity=".8"/>
        </linearGradient>
        <linearGradient id="c" x1="99.743%" x2=".803%" y1="50.037%" y2="50.037%">
            <stop offset="29.04%" stop-color="#FFF" stop-opacity="0"/>
            <stop offset="100%" stop-color="#FFF" stop-opacity=".4"/>
        </linearGradient>
        <linearGradient id="d" x1="82.175%" x2="9.572%" y1="2.677%" y2="70.16%">
            <stop offset="0%" stop-color="#F58220"/>
            <stop offset="100%" stop-color="#E84D23"/>
        </linearGradient>
        <linearGradient id="e" x1="62.858%" x2="-45.925%" y1="46.128%" y2="69.647%">
            <stop offset="0%" stop-color="#FFF" stop-opacity=".3"/>
            <stop offset="100%" stop-color="#FFF" stop-opacity="0"/>
        </linearGradient>
    </defs>
    <g fill="none" fill-rule="evenodd">
        <path fill="#FFF" fill-rule="nonzero" d="M62.93 9.788h3.95V12.6c0 .612-.06 1.153-.06 1.153h.06c.75-2.341 2.712-4.188 5.247-4.188h.75v3.93H71.9c-1.75 0-3.724 1.058-4.498 3.493-.262.8-.357 1.694-.357 2.66v6.458h-4.105V9.788h-.012zm-18.586 0h3.76v1.188c0 .612-.06 1.118-.06 1.118h.06s1.428-2.682 5.307-2.682c4.462 0 7.317 3.482 7.317 8.54 0 5.19-3.2 8.542-7.543 8.542-3.272 0-4.724-2.235-4.724-2.235h-.06s.06.576.06 1.412v7.164h-4.105V9.788h-.012zm8.091 13.283c2.26 0 4.14-1.824 4.14-5.06 0-3.105-1.677-5.117-4.104-5.117-2.142 0-4.14 1.541-4.14 5.153 0 2.53 1.391 5.024 4.104 5.024zM82.8 9.41c5.045 0 9.09 3.554 9.09 8.542 0 5.023-4.045 8.541-9.066 8.541-5.045 0-9.09-3.518-9.09-8.541 0-4.988 4.045-8.541 9.066-8.541zm.036 13.636c2.653 0 4.89-2.047 4.89-5.082 0-3.012-2.237-5.083-4.89-5.083-2.689 0-4.914 2.083-4.914 5.083-.012 3.035 2.225 5.082 4.914 5.082zM94.103 9.788h3.76v1.188c0 .612-.06 1.118-.06 1.118h.06s1.427-2.682 5.306-2.682c4.462 0 7.317 3.482 7.317 8.54 0 5.19-3.2 8.542-7.543 8.542-3.272 0-4.724-2.235-4.724-2.235h-.06s.06.576.06 1.412v7.164h-4.104V9.788h-.012zm8.09 13.283c2.261 0 4.141-1.824 4.141-5.06 0-3.105-1.678-5.117-4.105-5.117-2.142 0-4.14 1.541-4.14 5.153-.012 2.53 1.38 5.024 4.104 5.024zm18.859-13.66c4.76 0 7.317 3.424 7.317 7.742 0 .482-.095 1.565-.095 1.565h-11.386c.261 2.847 2.486 4.317 4.95 4.317 2.653 0 4.759-1.788 4.759-1.788l1.582 2.918s-2.522 2.34-6.64 2.34c-5.472 0-8.863-3.905-8.863-8.54 0-5.036 3.462-8.553 8.376-8.553zm3.177 6.53c-.06-2.212-1.452-3.388-3.272-3.388-2.106 0-3.558 1.282-3.95 3.388h7.222zm6.342-6.153h3.95V12.6c0 .612-.06 1.153-.06 1.153h.06c.75-2.341 2.713-4.188 5.247-4.188h.75v3.93h-.976c-1.75 0-3.724 1.058-4.498 3.493-.261.8-.357 1.694-.357 2.66v6.458h-4.105V9.788h-.011zm21.595 12.906h-.5c-1.13 0-3.272-.388-3.272-3.07v-6.342h3.76V9.8h-3.76V5.141h-4.01V9.8h-2.237v3.482h2.142v6.847c0 5.471 4.57 6.142 6.865 6.142h1.024v-3.577h-.012zm2.891 6.047s.904.67 1.844.67c1.13 0 2.237-.67 2.844-2.117l.619-1.435-6.96-16.059h4.628l3.462 9.412c.321.859.619 2.212.619 2.212h.06s.26-1.283.546-2.142l3.237-9.47h4.497L163.076 28.6c-1.166 2.976-3.462 4.259-5.949 4.259-1.975 0-3.426-1.059-3.426-1.059l1.356-3.059z"/>
        <path fill="#F66F26" fill-rule="nonzero" d="M173.5 13.282h-2.035V9.8h2.034v-.482c0-5.342 4.438-5.753 6.735-5.753.844 0 1.392.094 1.392.094v3.459s-.357-.06-.845-.06c-1.166 0-3.177-.01-3.177 2.354V9.8h3.522v3.482h-3.522v12.836h-4.105V13.282zm17.644-3.87c5.045 0 9.09 3.553 9.09 8.54 0 5.024-4.045 8.542-9.066 8.542-5.045 0-9.09-3.518-9.09-8.541 0-4.988 4.045-8.541 9.066-8.541zm.024 13.635c2.653 0 4.89-2.047 4.89-5.082 0-3.012-2.237-5.083-4.89-5.083-2.689 0-4.914 2.083-4.914 5.083 0 3.035 2.237 5.082 4.914 5.082zm15.8-2.53s-.225.518-.451.86l-2.88 4.74h-4.569l5.438-8.258-5.307-8.059h4.664l2.558 4.447c.262.412.548 1.024.548 1.024h.06s.285-.612.547-1.024l2.558-4.447h4.664l-5.307 8.059 5.438 8.259h-4.57l-2.879-4.742c-.226-.352-.452-.858-.452-.858h-.06z"/>
        <path fill="url(#a)" fill-rule="nonzero" d="M34.124 28.73c-8.745.117-14.302-11.636-21.238-11.354-7.365.306-8.84 11.589-7.698 20.424 0 0-.143-9.141 6.912-7.847 5.117.941 5.319 7.976 13.921 7.976 7.472 0 11.101-5.847 12.16-10.082 0 0-1.892.859-4.057.882z" transform="translate(0 1)"/>
        <path fill="url(#b)" fill-rule="nonzero" d="M33.827 33.824c1.201-1.212 2.213-2.8 2.879-4.495-.738.177-1.63.342-2.57.353h-.143c-2.88 0-5.473-1.211-7.84-2.835.201.812.999 3 2.938 4.424 0 0-1.666 1.023-5.711.282 0 0 2.689 2.518 5.366 3.13 0 0-2.201 1.235-5.628 1.94.845.248 1.797.389 2.903.389 3.094-.024 5.723-1.094 7.806-3.188z" transform="translate(0 1)"/>
        <path fill="url(#c)" fill-rule="nonzero" d="M13.469 20.188c8.721 0 15.467 14.188 24.712 7.66-.012 0-.119.046-.297.117h-.012c-.012 0-.024.011-.024.011a.826.826 0 0 0-.119.048c-.012 0-.024.011-.024.011-.047.012-.083.036-.13.047-.048.012-.096.036-.143.047-.012 0-.024.012-.036.012a1.454 1.454 0 0 0-.167.059c-.06.012-.107.035-.166.047-.012 0-.024.012-.048.012-.06.023-.119.035-.19.059h-.012c-.06.011-.13.035-.19.047-.012 0-.036.011-.048.011a1.397 1.397 0 0 1-.214.048h-.012c-.071.011-.143.035-.214.047-.024 0-.036.011-.06.011-.071.012-.154.036-.226.047h-.012c-.071.012-.154.024-.238.047-.023 0-.035.012-.06.012l-.249.036-.25.035c-.024 0-.047 0-.06.012a1.967 1.967 0 0 1-.261.023c-.083.012-.179.012-.262.012h-.071c-.095 0-.179.012-.274.012H34.1c-.273 0-.535 0-.797-.024-7.912-.553-13.23-10.659-19.549-11.294-.285-.024-.583-.024-.88-.024-4.962.212-7.246 5.4-7.865 11.471 1.071-6.247 4.629-8.659 8.46-8.659z" transform="translate(0 1)"/>
        <path fill="#F58220" d="M19.287 2.035c-.476.2-1.273.753-1.94 2.33.75.188 1.38.482 1.94.835V2.035z"/>
        <path fill="url(#d)" fill-rule="nonzero" d="M12.493 12.87c.94 0 2.368.448 4.164.448 5.295 0 7.39-3.177 7.532-4.518h-.857c-2.617 0-3.153-4.165-6.639-4.682L16.681.094c-4.77.659-26.39 11.647-11.493 37.718C4.355 29.8 3.914 12.87 12.493 12.87zm5.652-6.011c.583 0 1.166.353 1.416.87a1.615 1.615 0 0 1-1.297.612 1.907 1.907 0 0 1-1.535-.823c.428-.377.964-.66 1.416-.66z" transform="translate(0 1)"/>
        <path fill="url(#e)" fill-rule="nonzero" d="M11.981 12.894C3.105 12.964 1.951 23.2 5.176 37.8c-.81-7.847-1.25-24.247 6.805-24.906z" transform="translate(0 1)"/>
    </g>
</svg>
