<svg xmlns="http://www.w3.org/2000/svg" width="20" height="20" viewBox="0 0 20 20">
    <path fill="#F66F26" fill-rule="nonzero" d="M10.099 16.62c.296-.176.785-.497 1.284-.851a25.341 25.341 0 0 0 2.555-2.063c2.364-2.19 3.562-4.243 3.562-6.12 0-2.233-1.74-4.036-3.857-4.036a3.779 3.779 0 0 0-2.881 1.355L10 5.802l-.762-.897a3.779 3.779 0 0 0-2.88-1.355C4.238 3.55 2.5 5.353 2.5 7.586c0 1.877 1.198 3.93 3.562 6.12a25.341 25.341 0 0 0 2.555 2.063c.5.354.988.676 1.298.86l.085.051.099-.06zm-.86-13.01h.097c.24.193.462.41.664.648.202-.238.425-.455.664-.648h.098a6.026 6.026 0 0 0-.04-.046 4.732 4.732 0 0 1 2.92-1.014c2.678 0 4.858 2.258 4.858 5.036 0 2.307-1.46 4.61-3.882 6.854a26.37 26.37 0 0 1-2.656 2.145c-.575.407-1.075.73-1.353.895l-.609.37-.305-.185-.299-.181a22.025 22.025 0 0 1-1.358-.9 26.37 26.37 0 0 1-2.656-2.144C2.96 12.196 1.5 9.893 1.5 7.586c0-2.778 2.18-5.036 4.857-5.036 1.078 0 2.096.369 2.92 1.014l-.039.046z"/>
</svg>
