<?xml version="1.0" encoding="utf-8"?>
<!-- Generator: Adobe Illustrator 21.1.0, SVG Export Plug-In . SVG Version: 6.00 Build 0)  -->
<svg version="1.1" id="Layer_1" xmlns="http://www.w3.org/2000/svg" xmlns:xlink="http://www.w3.org/1999/xlink" x="0px" y="0px"
	 viewBox="0 0 24 24" style="enable-background:new 0 0 24 24;" xml:space="preserve">
<style type="text/css">
	.st0{fill:#1B1F21;}
</style>
<g>
	<path class="st0" d="M10.8,18l4.3-2.5c0,0,0.1,0,0.1-0.1c0.3-0.2,0.4-0.3,0.4-0.6c0-0.3-0.2-0.5-0.4-0.6c-0.1,0-0.1-0.1-0.2-0.1
		l-4.3-2.5c-0.1-0.1-0.3-0.1-0.4-0.1c-0.4,0-0.8,0.4-0.8,0.8v2.5v2.5c0,0.2,0,0.3,0.1,0.4C9.9,18.1,10.4,18.2,10.8,18z M10.5,14.8
		v-2.2l3.8,2.2L10.5,17V14.8z"/>
	<circle class="st0" cx="4.5" cy="19.5" r="0.5"/>
	<circle class="st0" cx="19.5" cy="9.5" r="0.5"/>
	<path class="st0" d="M21,7h-1V6c0-0.6-0.4-1-1-1h-1V4c0-0.6-0.4-1-1-1H7C6.4,3,6,3.4,6,4v1H5C4.4,5,4,5.4,4,6v1H3C2.4,7,2,7.4,2,8
		v13c0,0.6,0.4,1,1,1h18c0.6,0,1-0.4,1-1V8C22,7.4,21.6,7,21,7z M7,4h10v1H7V4z M5,6h14v1H5V6z M21,21H3V8h18V21z"/>
	<path class="st0" d="M4.5,10h1C5.8,10,6,9.8,6,9.5S5.8,9,5.5,9h-1C4.2,9,4,9.2,4,9.5S4.2,10,4.5,10z"/>
	<path class="st0" d="M16.5,19h-1c-0.3,0-0.5,0.2-0.5,0.5s0.2,0.5,0.5,0.5h1c0.3,0,0.5-0.2,0.5-0.5S16.8,19,16.5,19z"/>
	<path class="st0" d="M16.5,10h1c0.3,0,0.5-0.2,0.5-0.5S17.8,9,17.5,9h-1C16.2,9,16,9.2,16,9.5S16.2,10,16.5,10z"/>
	<path class="st0" d="M13.5,19h-1c-0.3,0-0.5,0.2-0.5,0.5s0.2,0.5,0.5,0.5h1c0.3,0,0.5-0.2,0.5-0.5S13.8,19,13.5,19z"/>
	<path class="st0" d="M7.5,10h1C8.8,10,9,9.8,9,9.5S8.8,9,8.5,9h-1C7.2,9,7,9.2,7,9.5S7.2,10,7.5,10z"/>
	<path class="st0" d="M6.5,20h1C7.8,20,8,19.8,8,19.5S7.8,19,7.5,19h-1C6.2,19,6,19.2,6,19.5S6.2,20,6.5,20z"/>
	<path class="st0" d="M9.5,20h1c0.3,0,0.5-0.2,0.5-0.5S10.8,19,10.5,19h-1C9.2,19,9,19.2,9,19.5S9.2,20,9.5,20z"/>
	<path class="st0" d="M10.5,10h1c0.3,0,0.5-0.2,0.5-0.5S11.8,9,11.5,9h-1C10.2,9,10,9.2,10,9.5S10.2,10,10.5,10z"/>
	<path class="st0" d="M13.5,10h1c0.3,0,0.5-0.2,0.5-0.5S14.8,9,14.5,9h-1C13.2,9,13,9.2,13,9.5S13.2,10,13.5,10z"/>
	<path class="st0" d="M18.5,20h1c0.3,0,0.5-0.2,0.5-0.5S19.8,19,19.5,19h-1c-0.3,0-0.5,0.2-0.5,0.5S18.2,20,18.5,20z"/>
</g>
</svg>
