<svg xmlns="http://www.w3.org/2000/svg" width="20" height="20" viewBox="0 0 20 20">
    <path fill="#F66F26" fill-rule="nonzero" d="M10 .5c-.823 0-1.5.678-1.5 1.5v.703c-.973.229-1.823.68-2.477 1.338-.976.986-1.523 2.383-1.523 3.99v3.9c0 .919-.502 2.083-1.02 2.946l-.896 1.346a.505.505 0 0 0-.026.513A.503.503 0 0 0 3 17h4.5a2.51 2.51 0 0 0 2.5 2.5 2.51 2.51 0 0 0 2.5-2.5H17a.503.503 0 0 0 .441-.264.505.505 0 0 0-.025-.513l-.893-1.34-.002-.002C15.998 14.008 15.5 12.918 15.5 12V8.1c0-2.684-1.598-4.762-4-5.38V2c0-.822-.678-1.5-1.5-1.5zm0 1c.277 0 .5.223.5.5v.557c-.5-.051-.5-.053-1-.006V2c0-.277.222-.5.5-.5zm0 2c2.756 0 4.5 1.834 4.5 4.6V12c0 1.256.601 2.459 1.164 3.398.006.006.01.014.013.02l.387.582H3.935l.387-.582c.004-.006.008-.014.014-.02.568-.947 1.164-2.21 1.164-3.466v-3.9c0-1.384.457-2.503 1.234-3.286C7.509 3.963 8.619 3.5 10 3.5zM8.5 17h3a1.5 1.5 0 0 1-3 0z"/>
</svg>
