<svg xmlns="http://www.w3.org/2000/svg" width="20" height="20" viewBox="0 0 20 20">
    <g fill="none" fill-rule="evenodd">
        <path fill="#090909" fill-opacity=".3" d="M9.238 2.362h.118c.23.197.445.413.644.647a5.84 5.84 0 0 1 .644-.647h.118a6.91 6.91 0 0 0-.05-.058A5.574 5.574 0 0 1 14.286 1C17.436 1 20 3.656 20 6.924c0 2.715-1.718 5.425-4.567 8.064a31.023 31.023 0 0 1-3.125 2.523c-.676.48-1.264.86-1.592 1.054L10 19l-.36-.218-.35-.213a25.912 25.912 0 0 1-1.598-1.058 31.023 31.023 0 0 1-3.125-2.523C1.718 12.348 0 9.638 0 6.924 0 3.656 2.564 1 5.714 1c1.329 0 2.58.476 3.574 1.304a6.91 6.91 0 0 0-.05.058z"/>
        <path fill="#FFF" fill-rule="nonzero" d="M10.206 17.705c.354-.21.933-.59 1.524-1.01a29.989 29.989 0 0 0 3.023-2.44C17.567 11.648 19 9.19 19 6.925 19 4.2 16.876 2 14.286 2c-1.352 0-2.63.605-3.524 1.657L10 4.553l-.762-.896C8.344 2.605 7.066 2 5.714 2 3.124 2 1 4.201 1 6.924c0 2.267 1.433 4.724 4.247 7.33.918.85 1.937 1.671 3.023 2.442.592.42 1.17.8 1.539 1.018l.191.116.206-.125zM9.238 2.362h.118c.23.197.445.413.644.647a5.84 5.84 0 0 1 .644-.647h.118a6.91 6.91 0 0 0-.05-.058A5.574 5.574 0 0 1 14.286 1C17.436 1 20 3.656 20 6.924c0 2.715-1.718 5.425-4.567 8.064a31.023 31.023 0 0 1-3.125 2.523c-.676.48-1.264.86-1.592 1.054L10 19l-.36-.218-.35-.213a25.912 25.912 0 0 1-1.598-1.058 31.023 31.023 0 0 1-3.125-2.523C1.718 12.348 0 9.638 0 6.924 0 3.656 2.564 1 5.714 1c1.329 0 2.58.476 3.574 1.304a6.91 6.91 0 0 0-.05.058z"/>
    </g>
</svg>
