<svg xmlns="http://www.w3.org/2000/svg" width="166" height="35" viewBox="0 0 166 35">
    <g fill="none" fill-rule="nonzero">
        <g fill="#005AA9">
            <path d="M94.869 12.247v1.041c.393-.39.852-.716 1.377-.911a3.986 3.986 0 0 1 1.574-.326c1.18 0 2.23.456 3.082 1.368.852.911 1.246 2.083 1.246 3.45 0 1.368-.46 2.54-1.312 3.452-.852.912-1.902 1.367-3.082 1.367-.524 0-1.05-.065-1.508-.26-.46-.195-.918-.521-1.377-.912v4.298h-2.295V12.247h2.295zm2.426 1.888c-.721 0-1.311.26-1.836.716-.459.521-.721 1.172-.721 1.954 0 .846.262 1.497.721 1.953.459.521 1.115.782 1.836.782.721 0 1.312-.26 1.77-.782.46-.52.722-1.172.722-1.953 0-.782-.262-1.433-.721-1.954-.46-.52-1.05-.716-1.77-.716zM113.36 11.986c.853 0 1.706.195 2.427.651.787.456 1.377 1.042 1.77 1.758.46.717.656 1.563.656 2.41 0 .846-.197 1.693-.656 2.409-.459.781-1.049 1.367-1.77 1.758-.721.456-1.574.651-2.492.651-1.311 0-2.426-.456-3.41-1.432-.918-.912-1.377-2.084-1.377-3.386 0-1.433.525-2.605 1.574-3.582 1.05-.846 2.098-1.237 3.279-1.237zm.066 2.149c-.721 0-1.311.26-1.77.716-.46.521-.722 1.107-.722 1.889 0 .78.263 1.432.722 1.953.459.521 1.049.716 1.77.716.722 0 1.312-.26 1.836-.781.46-.521.722-1.172.722-1.954 0-.781-.263-1.432-.722-1.888-.524-.39-1.114-.651-1.836-.651zM122.213 12.247v1.041c.394-.39.853-.716 1.377-.911a3.986 3.986 0 0 1 1.574-.326c1.18 0 2.23.456 3.082 1.368.852.911 1.246 2.083 1.246 3.45 0 1.368-.46 2.54-1.312 3.452-.852.912-1.901 1.367-3.082 1.367-.524 0-1.049-.065-1.508-.26-.459-.195-.918-.521-1.377-.912v4.298h-2.295V12.247h2.295zm2.426 1.888c-.721 0-1.311.26-1.836.716-.459.521-.721 1.172-.721 1.954 0 .846.262 1.497.721 1.953.46.521 1.115.782 1.836.782.722 0 1.312-.26 1.77-.782.46-.52.722-1.172.722-1.953 0-.782-.262-1.433-.721-1.954-.46-.456-1.05-.716-1.77-.716zM148.705 8.795H151v3.386h1.377v1.954H151v7.228h-2.295V14.2h-1.18v-1.953h1.18zM153.098 12.247h2.361l2.426 5.73 2.623-5.73h2.36l-5.77 12.502h-2.36l1.901-4.037zM107.984 12.247c-.132 0-.197-.066-.328-.066-.394 0-.787.13-1.18.326-.328.26-.656.586-.853 1.042V12.18h-1.967v9.182h2.295V17.39 16.545c0-1.238.852-2.28 2.033-2.475v-1.823zM146.148 12.247c-.132 0-.197-.066-.328-.066-.394 0-.787.13-1.18.326-.329.26-.656.586-.853 1.042V12.18h-1.967v9.182h2.295V17.39 16.545c0-1.238.852-2.28 2.033-2.475v-1.823zM137.623 18.888c-.59.521-1.246.782-2.033.782-.721 0-1.311-.196-1.77-.586-.46-.391-.722-.912-.853-1.563h7.476v-.456c0-1.498-.46-2.735-1.377-3.646-.918-.912-2.099-1.368-3.541-1.368-1.377 0-2.492.456-3.41 1.368-.918.911-1.377 2.083-1.377 3.516 0 1.367.459 2.474 1.377 3.386.918.912 2.098 1.367 3.54 1.367.919 0 1.771-.195 2.427-.52.59-.261 1.05-.652 1.508-1.173l-1.967-1.107zm-3.738-4.428c.46-.39 1.05-.52 1.705-.52.59 0 1.115.13 1.574.455.459.326.721.717.918 1.238h-5.05c.263-.521.525-.912.853-1.173z"/>
        </g>
        <g fill="#005AA9">
            <path d="M34.082 12.181v1.042c.393-.39.852-.716 1.377-.911a3.986 3.986 0 0 1 1.574-.326c1.18 0 2.23.456 3.082 1.367.852.912 1.246 2.084 1.246 3.517 0 1.367-.46 2.54-1.312 3.45-.852.913-1.901 1.368-3.082 1.368-.524 0-1.049-.065-1.508-.26-.459-.195-.918-.521-1.377-.912v4.363h-2.295V12.181h2.295zm2.492 1.889c-.722 0-1.312.26-1.836.716-.46.521-.722 1.172-.722 1.954 0 .846.263 1.497.722 1.953.459.521 1.114.781 1.836.781.721 0 1.311-.26 1.77-.781.46-.52.722-1.172.722-1.953 0-.782-.263-1.433-.722-1.954-.459-.456-1.049-.716-1.77-.716zM49.885 8.405c.394 0 .787.13 1.05.455.262.326.458.652.458 1.042 0 .391-.13.782-.459 1.042-.327.26-.655.456-1.049.456-.393 0-.787-.13-1.049-.456-.262-.325-.459-.651-.459-1.107 0-.39.131-.781.46-1.042.261-.26.655-.39 1.048-.39zm-1.18 3.776H51v9.182h-2.295V12.18zM52.377 12.181h2.36l2.361 5.405 2.361-5.405h2.36l-3.934 9.182h-1.508zM69.033 12.181h2.295v9.182h-2.295v-.977a4.21 4.21 0 0 1-1.377.912c-.46.195-.984.26-1.508.26-1.18 0-2.23-.456-3.082-1.367-.853-.912-1.312-2.084-1.312-3.451 0-1.433.394-2.605 1.246-3.517.852-.911 1.902-1.367 3.082-1.367.525 0 1.05.13 1.574.325.459.196.918.521 1.377.912v-.912zm-2.426 1.889c-.722 0-1.312.26-1.77.781-.46.521-.722 1.172-.722 1.954 0 .781.262 1.432.721 1.953a2.35 2.35 0 0 0 1.77.782c.722 0 1.312-.26 1.837-.782.459-.52.72-1.172.72-1.953 0-.782-.261-1.433-.72-1.954-.46-.52-1.115-.781-1.836-.781zM74.016 8.795h2.295v3.386h1.378V14.2H76.31v7.228h-2.295V14.2h-1.18v-2.019h1.18zM47.131 12.247c-.131 0-.197-.066-.328-.066-.393 0-.787.13-1.18.326-.328.26-.656.586-.853 1.042V12.18h-1.967v9.182h2.295V17.39 16.545c0-1.238.853-2.28 2.033-2.475v-1.823zM85.492 18.823c-.59.521-1.246.782-2.033.782-.721 0-1.311-.196-1.77-.586-.46-.391-.722-.912-.853-1.563h7.41V17c0-1.498-.46-2.735-1.377-3.647-.918-.911-2.099-1.367-3.541-1.367-1.377 0-2.492.456-3.41 1.367-.918.912-1.377 2.084-1.377 3.517 0 1.367.459 2.474 1.377 3.386.918.911 2.098 1.367 3.541 1.367.918 0 1.77-.195 2.426-.52.59-.261 1.05-.652 1.508-1.173l-1.901-1.107zm-3.738-4.363c.46-.39 1.05-.52 1.705-.52.59 0 1.115.13 1.574.455.459.326.721.717.918 1.238H80.9c.263-.586.525-.977.853-1.173z"/>
        </g>
        <path fill="#EC1C24" d="M15.918 10.033l5.967 4.167 1.902-.651-7.869-5.47-7.869 5.47 1.902.651z"/>
        <path fill="#EC1C24" d="M17.492 17.52l4 2.67v-5.013l-5.574-3.842-5.574 3.842v5.86h7.541z"/>
        <path fill="#EC1C24" d="M18.279 25.01c-.853.195-1.705.325-2.558.325-5.508 0-9.901-4.428-9.901-9.833 0-5.47 4.459-9.832 9.901-9.832 5.443 0 9.902 4.428 9.902 9.832 0 2.28-.787 4.363-2.098 6.056l1.967 1.302c1.574-2.083 2.492-4.623 2.492-7.358 0-6.772-5.509-12.176-12.263-12.176-6.82 0-12.262 5.47-12.262 12.176 0 6.772 5.508 12.242 12.262 12.242.984 0 1.902-.13 2.82-.325l-.262-2.41z"/>
        <path fill="#005AA9" d="M26.672 25.205l-2.623.911 2.099 3.517-1.968 1.172-2.164-3.517-1.967 1.889-.918-9.051z"/>
    </g>
</svg>
