<svg xmlns="http://www.w3.org/2000/svg" xmlns:xlink="http://www.w3.org/1999/xlink" width="22" height="22" viewBox="0 0 22 22">
    <defs>
        <circle id="a" cx="11" cy="11" r="10"/>
    </defs>
    <g fill="none" fill-rule="evenodd">
        <g>
            <use fill="#F66F26" xlink:href="#a"/>
            <circle cx="11" cy="11" r="10.5" stroke="#FFF"/>
        </g>
        <path fill="#FFF" fill-rule="nonzero" d="M6.929 5c-3.038 2.848-1.932 6.067-.45 6.302.164.011.539.046.656.037 0 0-.811-2.016-.206-4.032.028 1.392.75 3.453.956 3.788.704-.007 1.998-2.107 1.613-3.47C8.966 5.735 6.928 5 6.928 5zm5.795 4.332c-2.21.108-3.957 1.665-4.295 3.039.021.243.054.487.094.656 0 0 2.534-1.505 5.382-1.257-1.866.476-5.436 1.791-6.564 4.595l1.576.638c.248-.65.319-1.587.937-2.063.455.827 2.192 2.22 3.939 1.238 2.426-1.365 3.207-5.12 3.207-5.12-1.453-1.332-2.95-1.789-4.276-1.726z"/>
    </g>
</svg>
