<svg xmlns="http://www.w3.org/2000/svg" xmlns:xlink="http://www.w3.org/1999/xlink" width="22" height="22" viewBox="0 0 22 22">
    <defs>
        <circle id="a" cx="11" cy="11" r="10"/>
    </defs>
    <g fill="none" fill-rule="evenodd">
        <g>
            <use fill="#F66F26" xlink:href="#a"/>
            <circle cx="11" cy="11" r="10.5" stroke="#FFF"/>
        </g>
        <path fill="#FFF" fill-rule="nonzero" d="M7.042 5L6.5 8.5 7.685 10l-.102 6c0 .55.491 1 1.033 1 .65 0 1.134-.45 1.134-1l-.102-6 1.185-1.5-.541-3.5H9.75v2.75c0 .15-.108.25-.27.25-.164 0-.272-.1-.272-.25 0-.05-.22-2.75-.22-2.75h-.643s-.22 2.7-.22 2.75c0 .15-.108.25-.27.25-.164 0-.272-.1-.272-.25V5h-.541zm8.074 0c-.597 0-2.708 1.35-2.708 3s1.083 2.7 1.083 3.25c0 1.1-.434 2.854-.542 4.703-.055.55.436 1.047 1.033 1.047.596 0 1.079-.45 1.134-1V5z"/>
    </g>
</svg>
