<svg xmlns="http://www.w3.org/2000/svg" width="20" height="20" viewBox="0 0 20 20">
    <g fill="#FFF" fill-rule="evenodd">
        <rect width="1" height="8" x="10" y="2" rx=".5"/>
        <rect width="1" height="4" x="10" y="14" rx=".5"/>
        <rect width="1" height="8" x="17" y="10" rx=".5"/>
        <rect width="1" height="4" x="17" y="2" rx=".5"/>
        <path fill-rule="nonzero" d="M10.5 12.5a1 1 0 1 0 0-2 1 1 0 0 0 0 2zm0 1a2 2 0 1 1 0-4 2 2 0 0 1 0 4z"/>
        <rect width="1" height="9" x="3" y="9" rx=".5" transform="matrix(1 0 0 -1 0 27)"/>
        <rect width="1" height="3" x="3" y="2" rx=".5" transform="matrix(1 0 0 -1 0 7)"/>
        <path fill-rule="nonzero" d="M3.5 5.5a1 1 0 1 1 0 2 1 1 0 0 1 0-2zm0-1a2 2 0 1 0 0 4 2 2 0 0 0 0-4zM17.5 6.5a1 1 0 1 1 0 2 1 1 0 0 1 0-2zm0-1a2 2 0 1 0 0 4 2 2 0 0 0 0-4z"/>
    </g>
</svg>
