<svg xmlns="http://www.w3.org/2000/svg" xmlns:xlink="http://www.w3.org/1999/xlink" width="30" height="30" viewBox="0 0 30 30">
    <defs>
        <path id="a" d="M26 7.983c-.788.396-1.575.528-2.494.66.919-.528 1.575-1.321 1.838-2.379-.788.529-1.707.793-2.757 1.058C21.8 6.529 20.62 6 19.438 6c-2.23 0-4.2 1.983-4.2 4.362 0 .396 0 .66.132.925-3.544-.132-6.825-1.85-8.925-4.494-.394.66-.525 1.322-.525 2.247 0 1.454.787 2.775 1.969 3.568-.657 0-1.313-.264-1.97-.528 0 2.114 1.444 3.833 3.413 4.23-.393.131-.787.131-1.181.131-.263 0-.525 0-.788-.132.526 1.718 2.1 3.04 4.07 3.04-1.444 1.19-3.282 1.85-5.382 1.85H5c1.969 1.19 4.2 1.983 6.563 1.983 7.874 0 12.206-6.609 12.206-12.292v-.528c.919-.661 1.706-1.454 2.231-2.38z"/>
    </defs>
    <g fill="none" fill-rule="evenodd">
        <use fill="#F66F26" xlink:href="#a"/>
        <use fill="#090909" fill-opacity=".1" xlink:href="#a"/>
    </g>
</svg>
