<svg xmlns="http://www.w3.org/2000/svg" width="22" height="22" viewBox="0 0 22 22">
    <path fill="#F66F26" fill-rule="nonzero" d="M5.269 3.189c-.322.225-.879.685-1.33 1.119-.286.274-.51.516-.675.735-.216.288-.268.395-.264.544.01.285.031.51.1.84.102.498.285 1.047.57 1.653.772 1.646 2.193 3.573 4.434 5.814 2.241 2.242 4.17 3.664 5.815 4.436a7.449 7.449 0 0 0 1.652.57c.332.069.556.09.84.1.15.004.255-.047.544-.265.22-.165.462-.39.736-.675.433-.451.893-1.007 1.118-1.33.272-.387.24-.796.002-.962a215.785 215.785 0 0 0-3.432-2.273c-.199-.122-.474-.09-.84.102-.137.073-.387.212-.718.4-.264.149-.495.28-.788.449l-.262.15-.255-.162a8.016 8.016 0 0 1-.8-.597 27.184 27.184 0 0 1-1.846-1.709 27.012 27.012 0 0 1-1.708-1.845 7.973 7.973 0 0 1-.596-.8l-.162-.255.15-.262c.268-.466.299-.52.437-.766.2-.352.338-.6.41-.74.197-.372.228-.644.105-.839-.106-.166-.59-.902-1.143-1.74a93.872 93.872 0 0 0-1.13-1.692.476.476 0 0 0-.36-.187.94.94 0 0 0-.604.187zm8.037 9.95c.362-.206.618-.348.766-.426.645-.341 1.273-.41 1.828-.071.371.227 3.105 2.04 3.485 2.307.728.51.81 1.547.243 2.355-.255.365-.747.96-1.215 1.449-.308.32-.587.579-.856.78-.46.347-.731.48-1.177.466a5.442 5.442 0 0 1-1.01-.12 8.442 8.442 0 0 1-1.876-.643c-1.759-.826-3.779-2.316-6.097-4.635-2.318-2.318-3.807-4.338-4.633-6.096A8.447 8.447 0 0 1 2.12 6.63 5.442 5.442 0 0 1 2 5.619c-.013-.446.12-.718.465-1.177a7.29 7.29 0 0 1 .781-.856 14.078 14.078 0 0 1 1.45-1.217 1.935 1.935 0 0 1 1.259-.363c.442.036.836.247 1.089.598.116.16.43.632 1.153 1.726.559.845 1.043 1.581 1.153 1.755.354.559.283 1.185-.063 1.84-.079.151-.22.407-.412.745l-.298.523c.348.483.954 1.182 2 2.228 1.047 1.047 1.747 1.654 2.23 2.002l.5-.284z"/>
</svg>
