<svg xmlns="http://www.w3.org/2000/svg" width="20" height="20" viewBox="0 0 20 20">
    <g fill="#1B1F21" fill-rule="nonzero">
        <path d="M11.67 7a4.01 4.01 0 0 0-4 4c0 2.202 1.798 4 4 4s4-1.798 4-4-1.798-4-4-4zm0-1c2.754 0 5 2.246 5 5s-2.246 5-5 5a5.01 5.01 0 0 1-5-5c0-2.754 2.246-5 5-5z"/>
        <path d="M4.333 4.36h-1.26v.633l-.621.254C1.577 5.605 1 6.429 1 7.366v8.308C1 16.954 2.026 18 3.26 18h13.48c1.234 0 2.26-1.046 2.26-2.326V7.366c0-1.28-1.026-2.326-2.26-2.326h-1.26l-.257-.615-.2-.478c-.225-.594-.67-.947-1.127-.947h-4.68c-.46 0-.905.353-1.14.972l-.44 1.068H4.333v-.68zM9.216 2h4.68c.932 0 1.71.667 2.062 1.591l.188.449h.594C18.53 4.04 20 5.538 20 7.366v8.308C20 17.502 18.531 19 16.74 19H3.26C1.47 19 0 17.502 0 15.674V7.366C0 5.97.872 4.813 2.073 4.322V4.04c.003-.375.3-.68.667-.68h1.927c.367 0 .666.305.666.68h1.633l.185-.449C7.503 2.667 8.281 2 9.216 2z"/>
        <path d="M3.6 6.5a1.101 1.101 0 0 1 0 2.2 1.101 1.101 0 0 1 0-2.2zm0 1c-.054 0-.1.046-.1.1 0 .054.046.1.1.1.054 0 .1-.046.1-.1 0-.054-.046-.1-.1-.1z"/>
    </g>
</svg>
