<?xml version="1.0" encoding="UTF-8"?>
<svg width="22px" height="22px" viewBox="0 0 22 22" version="1.1" xmlns="http://www.w3.org/2000/svg" xmlns:xlink="http://www.w3.org/1999/xlink">
    <!-- Generator: Sketch 47 (45396) - http://www.bohemiancoding.com/sketch -->
    <title>svg-navigation-menu-close-white</title>
    <desc>Created with Sketch.</desc>
    <defs></defs>
    <g id="Page-1" stroke="none" stroke-width="1" fill="none" fill-rule="evenodd">
        <g id="Assets" transform="translate(-471.000000, -331.000000)" fill-rule="nonzero" fill="#FFFFFF">
            <g id="svg/ui/white/close" transform="translate(471.000000, 331.000000)">
                <path d="M11,10.2917349 L2.85495158,2.1466865 L2.85495158,2.1466865 C2.65936958,1.9511045 2.3422685,1.9511045 2.1466865,2.1466865 L2.1466865,2.1466865 L2.1466865,2.1466865 C1.9511045,2.3422685 1.9511045,2.65936958 2.1466865,2.85495158 L10.2917349,11 L2.1466865,19.1450484 C1.9511045,19.3406304 1.9511045,19.6577315 2.1466865,19.8533135 C2.3422685,20.0488955 2.65936958,20.0488955 2.85495158,19.8533135 L11,11.7082651 L19.1450484,19.8533135 L19.1450484,19.8533135 C19.3406304,20.0488955 19.6577315,20.0488955 19.8533135,19.8533135 C20.0488955,19.6577315 20.0488955,19.3406304 19.8533135,19.1450484 L11.7082651,11 L19.8533135,2.85495158 L19.8533135,2.85495158 C20.0488955,2.65936958 20.0488955,2.3422685 19.8533135,2.1466865 L19.8533135,2.1466865 L19.8533135,2.1466865 C19.6577315,1.9511045 19.3406304,1.9511045 19.1450484,2.1466865 L11,10.2917349 Z" id="Combined-Shape"></path>
            </g>
        </g>
    </g>
</svg>