<svg xmlns="http://www.w3.org/2000/svg" width="134" height="35" viewBox="0 0 134 35">
    <g fill="none" fill-rule="nonzero">
        <path fill="#00DEB6" d="M129.175 18.805h-3.132l-3.132-2.678-3.132 2.678h-3.132c-.448 0-.895-.178-1.164-.446-.358-.357-.447-.714-.447-1.16v-7.054c0-.447.179-.893.447-1.161l.09-.09L123 2.645l7.517 6.25c.268.269.447.715.447 1.161v7.054c0 .446-.179.893-.447 1.16-.448.358-.895.536-1.342.536zm-2.417-1.875h2.238v-6.696l-6.085-5.09-6.085 5.09v6.696h2.147l3.848-3.214 3.937 3.214z"/>
        <path fill="#262637" d="M15.26 7.734c-.18-.179-.358-.268-.627-.357-.268-.09-.447-.09-.716-.09-.268 0-.447 0-.716.09-.268.09-.447.178-.626.357s-.358.357-.447.536c-.09.268-.18.535-.18.803s.09.536.18.804c.089.268.268.446.447.536.179.178.358.267.626.357.269.089.448.089.716.089.269 0 .448 0 .716-.09.269-.089.448-.178.627-.356.178-.18.357-.358.447-.536.09-.268.179-.447.179-.804 0-.268-.09-.535-.18-.803-.089-.179-.268-.447-.446-.536zM37.9 11.84c-.627 0-1.343.09-1.97.357-.626.268-1.163.536-1.52.982V7.377h-3.58v16.071h3.58v-6.071c0-.357.089-.625.178-.982.09-.268.269-.536.448-.804s.447-.446.716-.536c.268-.178.626-.178 1.074-.178.626 0 1.073.178 1.431.536.358.357.537.892.537 1.517v6.429h3.58v-6.875c0-1.518-.448-2.679-1.253-3.393-.806-.803-1.88-1.25-3.222-1.25zm-14.14.09c-.984 0-1.968.178-2.773.446-.806.268-1.522.714-2.148 1.25-.626.536-1.074 1.16-1.342 1.964-.358.714-.448 1.607-.448 2.5 0 .804.09 1.518.358 2.143.269.625.627 1.25 1.074 1.696.447.447.984.893 1.7 1.161.627.268 1.432.357 2.237.357 1.253 0 2.237-.357 3.043-.982v.804c0 .803-.269 1.428-.716 1.875-.447.446-1.074.625-1.969.625-.626 0-1.252-.09-1.79-.268a10.93 10.93 0 0 1-1.52-.625l-1.432 2.5c.626.446 1.342.714 2.147.893.806.178 1.7.268 2.774.268 1.88 0 3.311-.447 4.385-1.34 1.074-.893 1.61-2.232 1.61-4.107V12.734c-.715-.268-1.52-.446-2.415-.625-.806-.179-1.79-.179-2.774-.179zm1.611 6.517c0 .715-.179 1.25-.626 1.607-.358.358-.984.536-1.7.536-.806 0-1.343-.268-1.79-.714-.447-.447-.626-1.16-.626-1.964 0-.447.09-.804.179-1.161.09-.357.358-.714.537-.982.268-.268.626-.536.984-.715.358-.178.805-.267 1.342-.267.358 0 .716 0 .895.089.268 0 .447.09.716.178v3.393h.09zm-13.243 5h3.579v-11.34h-3.58v11.34zM9.89 11.93c-.805 0-1.52.179-2.058.536-.537.357-.984.714-1.253 1.072l-.09-1.43H3v11.34h3.58v-5.625c0-.893.268-1.607.805-2.053.537-.447 1.253-.715 2.058-.715.447 0 .805 0 1.074.09l.537-3.036c-.18 0-.269-.09-.448-.09-.09-.089-.447-.089-.716-.089zm40.985 8.929c-.269.09-.627.179-.985.179-.447 0-.805-.18-1.073-.447-.269-.268-.358-.714-.358-1.25v-4.464H51.5v-2.768H48.46V8.716h-3.58v3.393H43v2.768h1.88v4.286c0 .714.089 1.339.268 1.964.179.536.358 1.071.716 1.518.358.446.805.714 1.342.982s1.253.357 2.148.357c1.163 0 2.326-.357 3.4-1.071l-1.163-2.322c-.18 0-.448.179-.716.268zm60.224-2.59c0-.981-.09-1.785-.358-2.589-.269-.803-.627-1.517-1.074-2.053-.537-.536-1.074-.982-1.79-1.34-.716-.357-1.521-.446-2.506-.446-.984 0-1.79.179-2.595.536-.716.357-1.431.803-1.879 1.34-.537.535-.895 1.16-1.163 1.874-.269.714-.448 1.518-.448 2.322 0 .892.18 1.696.448 2.5.268.714.716 1.428 1.253 1.875a5.313 5.313 0 0 0 2.058 1.25c.805.267 1.7.446 2.684.446.716 0 1.432-.09 1.97-.179.625-.178 1.073-.267 1.52-.446a5.963 5.963 0 0 0 1.074-.536c.269-.178.448-.357.627-.357l-1.522-2.232c-.268.179-.716.446-1.253.714-.626.268-1.342.357-2.326.357s-1.7-.267-2.237-.714c-.537-.446-.806-.982-.806-1.607h8.412v-.714h-.09zm-8.412-1.696c0-.268.09-.446.179-.714.09-.268.268-.446.447-.714.18-.179.448-.357.806-.536.358-.179.716-.179 1.073-.179.448 0 .806.09 1.074.179.269.179.537.268.716.536.18.178.358.446.448.714.09.268.179.536.179.714h-4.922zm-6.98-4.464l-2.685 7.41-2.774-7.41h-4.026l5.01 11.34h3.401l5.011-11.34h-3.937zm-10.738 1.429A5.689 5.689 0 0 0 83 12.288c-.805-.358-1.61-.447-2.595-.447-.895 0-1.79.179-2.595.447-.805.357-1.432.714-1.969 1.25-.537.535-.984 1.16-1.253 1.875-.268.714-.447 1.517-.447 2.32 0 .805.179 1.608.447 2.322.269.715.716 1.34 1.253 1.875.537.536 1.253.983 1.969 1.34.805.357 1.61.446 2.595.446.895 0 1.79-.178 2.595-.446.805-.357 1.432-.715 1.969-1.34.537-.535.984-1.16 1.253-1.875.268-.714.447-1.517.447-2.321 0-.804-.179-1.607-.447-2.321-.269-.715-.716-1.34-1.253-1.875zM83 18.895c-.09.357-.268.714-.537.982-.268.268-.537.536-.895.714a2.482 2.482 0 0 1-1.163.268c-.447 0-.895-.09-1.253-.268-.358-.178-.626-.357-.895-.714a2.127 2.127 0 0 1-.537-.982c-.09-.357-.179-.715-.179-1.161 0-.357.09-.804.18-1.16.089-.358.268-.715.536-.983.269-.268.537-.536.895-.714.358-.179.806-.268 1.253-.268.447 0 .895.09 1.163.268.358.178.627.357.895.714.269.268.448.625.537.982.09.357.179.715.179 1.16 0 .447 0 .805-.179 1.162zM68.235 11.84a5.77 5.77 0 0 0-2.148.447 4.77 4.77 0 0 0-1.79 1.16c-.178-.178-.268-.357-.536-.535-.18-.18-.448-.358-.716-.536-.269-.179-.627-.268-.985-.357a5.292 5.292 0 0 0-1.252-.179c-.806 0-1.432.179-1.969.447-.537.267-1.074.625-1.432 1.07l-.09-1.25h-3.49v11.34h3.58v-6.071c0-.714.18-1.34.627-1.786.447-.446.984-.714 1.7-.714.626 0 1.074.178 1.432.536.268.357.447.892.447 1.607v6.428h3.49v-6.071c0-.714.179-1.34.626-1.786.448-.446.985-.714 1.7-.714.627 0 1.074.178 1.432.536.269.357.448.892.448 1.607v6.428h3.58v-6.964c0-1.429-.359-2.5-1.164-3.393-.895-.803-2.058-1.25-3.49-1.25z"/>
    </g>
</svg>
