<svg xmlns="http://www.w3.org/2000/svg" width="24" height="24" viewBox="0 0 24 24">
    <g fill="#1B1F21" fill-rule="evenodd" transform="translate(2 2)">
        <path fill-rule="nonzero" d="M19.745 10.308c0 .742-.38 1.41-.98 1.81.088.236.135.488.135.746 0 .86-.51 1.612-1.26 1.97.025.131.038.266.038.403 0 1.168-.935 2.126-2.145 2.19L6.5 17.43a.549.549 0 0 1-.549-.549V7.93c0-.11.034-.218.096-.31l2.461-3.606a1.252 1.252 0 0 0 .217-.732l-.047-1.778C8.57.365 8.652.046 9.362-.107c-.04.008.193-.04.258-.056 2.004-.494 3.72 1.672 3.178 5.54h4.52c1.233 0 2.24.979 2.24 2.193 0 .458-.146.892-.405 1.254.373.396.592.921.592 1.484zm-4.242 6.023c.606-.033 1.078-.516 1.078-1.094 0-.168-.04-.331-.124-.493-.145-.298-.03-.73.408-.805.542-.094.937-.547.937-1.075 0-.233-.077-.455-.197-.616a.557.557 0 0 1 .256-.9c.468-.146.787-.566.787-1.04 0-.388-.214-.742-.562-.941-.32-.185-.423-.67-.061-.94.274-.208.435-.52.435-.857 0-.601-.508-1.095-1.142-1.095h-5.169a.549.549 0 0 1-.538-.654c.4-2.037.207-3.437-.389-4.248-.398-.54-.97-.761-1.34-.67a6.134 6.134 0 0 1-.149.033c.006.106.018.267.04.501l.048 1.816a2.333 2.333 0 0 1-.406 1.378L7.05 8.1v8.232h8.454z"/>
        <path fill-rule="nonzero" d="M1 17h5V6H1v11zm0 1a1 1 0 0 1-1-1V6a1 1 0 0 1 1-1h5a1 1 0 0 1 1 1v11a1 1 0 0 1-1 1H1z"/>
        <circle cx="4" cy="15" r="1"/>
    </g>
</svg>
