<svg xmlns="http://www.w3.org/2000/svg" width="133" height="35" viewBox="0 0 133 35">
    <g fill="none" fill-rule="evenodd">
        <path fill="#72EF36" fill-rule="nonzero" d="M26.247 8.862c-.27-.196-.404-.457-.472-.783-.404-4.497-4.314-8.018-9.101-8.018-4.787 0-8.697 3.52-9.102 8.084 0 .326-.202.586-.471.782-2.36 1.564-3.91 4.237-3.91 7.236 0 4.107 2.898 7.562 6.809 8.54.674.195 1.348.26 1.618.13.472-.26 1.078-2.477.809-2.934-.135-.26-.81-.521-1.484-.651-2.292-.587-3.977-2.608-3.977-5.02 0-1.369.54-2.542 1.416-3.52.404-.391.876-.782 1.348-1.043 1.011-.522 1.55-1.565 1.55-2.673 0-.587.068-1.108.27-1.63.674-2.086 2.764-3.585 5.124-3.585s4.45 1.5 5.124 3.585c.202.522.27 1.043.27 1.63 0 1.108.606 2.086 1.55 2.673.54.26.944.652 1.348 1.043a5.062 5.062 0 0 1 1.416 3.52c0 2.868-2.427 5.215-5.393 5.215-3.439 0-6.203 2.738-6.203 6.063v3.455c0 .651.068 1.369.27 1.564.404.391 2.764.391 3.169 0 .202-.195.27-.847.27-1.564v-3.52c0-1.304 1.078-2.347 2.426-2.347 5.057 0 9.17-3.977 9.17-8.866.067-3.064-1.484-5.737-3.844-7.366z"/>
        <g fill="#19383A" fill-rule="nonzero">
            <path d="M66.766 23.203h-2.764v-.912c-.877.847-1.956 1.238-3.304 1.238-1.28 0-2.292-.391-3.034-1.173-.741-.783-1.146-1.826-1.146-3.064v-6.193h2.764v5.671c0 .717.203 1.304.607 1.76.405.457.876.652 1.55.652 1.754 0 2.63-1.173 2.63-3.52v-4.498h2.764v10.04h-.067zM85.036 13.881c.809.783 1.214 1.76 1.214 2.999v6.388h-2.765v-5.801c0-.652-.202-1.174-.606-1.63-.405-.391-.877-.587-1.484-.587-.741 0-1.348.261-1.82.782-.404.522-.674 1.304-.674 2.347v4.89h-2.764v-5.802c0-.652-.202-1.174-.607-1.63-.404-.391-.876-.587-1.483-.587-.742 0-1.349.261-1.753.782-.405.522-.607 1.304-.607 2.347v4.89h-2.764V13.033h2.764v.847c.81-.782 1.82-1.173 3.169-1.173 1.55 0 2.697.587 3.438 1.695.944-1.108 2.225-1.695 3.843-1.695 1.146 0 2.09.391 2.899 1.173zM96.902 22.747c-.944.521-1.888.782-2.765.782-1.28 0-2.292-.326-3.033-1.043-.742-.652-1.079-1.695-1.079-3.064v-4.237h-2.292v-2.216h2.292V9.905h2.764v3.064h3.438v2.216H92.79v4.042c0 1.173.54 1.76 1.55 1.76.54 0 1.147-.196 1.754-.522l.809 2.282zM106.07 12.969l-.134 2.607h-.607c-2.495 0-3.776 1.434-3.776 4.368v3.26H98.79v-10.17h2.764v1.89c.944-1.304 2.225-2.02 3.776-2.02.337 0 .607 0 .742.065zM117.599 18.836h-8.023c.135.717.472 1.303.944 1.694.472.457 1.079.652 1.686.652 1.213 0 2.09-.456 2.629-1.369l2.494.522c-.472 1.043-1.146 1.825-2.022 2.347-.877.521-1.955.782-3.101.782-1.551 0-2.832-.522-3.843-1.5-1.012-.977-1.55-2.281-1.55-3.91 0-1.565.538-2.869 1.55-3.912 1.078-1.043 2.36-1.5 3.91-1.5 1.416 0 2.697.457 3.708 1.435 1.011.978 1.55 2.216 1.618 3.78v.979zm-6.944-3.26c-.472.326-.81.782-1.011 1.37h5.123c-.202-.653-.471-1.11-.943-1.435-.472-.326-.944-.456-1.551-.456s-1.146.195-1.618.521zM129.937 18.836h-8.023c.135.717.472 1.303.944 1.694.472.457 1.078.652 1.685.652 1.214 0 2.09-.456 2.63-1.369l2.494.522c-.472 1.043-1.146 1.825-2.023 2.347-.876.521-1.955.782-3.1.782-1.552 0-2.832-.522-3.844-1.5-1.011-.977-1.55-2.281-1.55-3.91 0-1.565.539-2.869 1.55-3.912 1.079-1.043 2.36-1.5 3.91-1.5 1.416 0 2.697.457 3.709 1.435 1.01.978 1.55 2.216 1.618 3.78v.979zm-6.945-3.26c-.471.326-.809.782-1.01 1.37h5.123c-.202-.653-.472-1.11-.944-1.435-.472-.326-.944-.456-1.55-.456-.607 0-1.147.195-1.619.521zM46.742 15.25v2.543h4.72c-.27.977-.742 1.76-1.483 2.346-.742.587-1.686.848-2.765.848-1.348 0-2.427-.457-3.37-1.304-.877-.847-1.349-1.956-1.349-3.26 0-1.303.405-2.346 1.281-3.259.877-.847 1.955-1.304 3.236-1.304 1.82 0 3.169.652 4.045 2.021l2.36-1.5c-.54-.847-1.214-1.564-2.157-2.085-1.214-.717-2.63-1.043-4.18-1.043-2.09 0-3.843.717-5.259 2.086-1.416 1.369-2.225 3.064-2.225 5.02 0 2.02.742 3.715 2.158 5.084 1.483 1.369 3.236 2.086 5.326 2.086 2.09 0 3.775-.652 5.123-2.02 1.349-1.37 2.023-3.065 2.023-5.085 0-.326 0-.717-.068-1.174h-7.416z"/>
        </g>
    </g>
</svg>
