<svg xmlns="http://www.w3.org/2000/svg" width="20" height="20" viewBox="0 0 20 20">
    <g fill="#46494B" fill-rule="nonzero">
        <path d="M4 10.138V11.5h5.5v-1.362l-.11-.052a6.234 6.234 0 0 0-5.28 0l-.11.052zM6.75 8.5c1.059 0 2.104.232 3.063.68l.687.322V11.5H3V9.502l.687-.321A7.234 7.234 0 0 1 6.75 8.5z"/>
        <path d="M10.5 11.5H16v-1.362l-.11-.052a6.234 6.234 0 0 0-5.28 0l-.11.052V11.5zm5.813-2.32l.687.322V11.5H9.5V9.502l.687-.321a7.234 7.234 0 0 1 6.126 0z"/>
        <path d="M2 12h16v-1H2z"/>
        <path d="M3 16.98v-2.006h14v2.006h.99c.013-4.462.013-6.24 0-9.334C12.658 5.452 7.347 5.45 2 7.646v9.334h1zm-2 1V6.984c6.004-2.645 12-2.645 17.987 0 .017 3.435.017 5.767 0 10.996H16v-2.006H4v2.006H1z"/>
    </g>
</svg>
