<?xml version="1.0" encoding="UTF-8"?>
<svg width="20px" height="20px" viewBox="0 0 20 20" version="1.1" xmlns="http://www.w3.org/2000/svg" xmlns:xlink="http://www.w3.org/1999/xlink">
    <!-- Generator: Sketch 47.1 (45422) - http://www.bohemiancoding.com/sketch -->
    <title>svg/property/white/list</title>
    <desc>Created with Sketch.</desc>
    <defs></defs>
    <g id="Symbols" stroke="none" stroke-width="1" fill="none" fill-rule="evenodd">
        <g id="svg/property/white/list" fill="#FFFFFF">
            <rect id="Rectangle-15" x="10" y="3" width="9" height="1" rx="0.5"></rect>
            <rect id="Rectangle-15-Copy-2" x="10" y="12" width="9" height="1" rx="0.5"></rect>
            <rect id="Rectangle-15-Copy" x="10" y="6" width="6" height="1" rx="0.5"></rect>
            <rect id="Rectangle-15-Copy-3" x="10" y="15" width="6" height="1" rx="0.5"></rect>
            <path d="M2,3 L2,8 L7,8 L7,3 L2,3 Z M2,2 L7,2 C7.55228475,2 8,2.44771525 8,3 L8,8 C8,8.55228475 7.55228475,9 7,9 L2,9 C1.44771525,9 1,8.55228475 1,8 L1,3 C1,2.44771525 1.44771525,2 2,2 Z" id="Rectangle-7" fill-rule="nonzero"></path>
            <path d="M2,12 L2,17 L7,17 L7,12 L2,12 Z M2,11 L7,11 C7.55228475,11 8,11.4477153 8,12 L8,17 C8,17.5522847 7.55228475,18 7,18 L2,18 C1.44771525,18 1,17.5522847 1,17 L1,12 C1,11.4477153 1.44771525,11 2,11 Z" id="Rectangle-7-Copy" fill-rule="nonzero"></path>
        </g>
    </g>
</svg>