<svg xmlns="http://www.w3.org/2000/svg" width="20" height="20" viewBox="0 0 20 20">
    <g fill="#FFF" fill-rule="evenodd">
        <path fill-rule="nonzero" d="M13.049 11.013c.107-.148.21-.305.315-.48.871-1.38 1.316-2.666 1.316-3.803C14.68 4.123 12.546 2 9.92 2S5.16 4.123 5.16 6.73c0 1.139.446 2.426 1.317 3.806l.13.197.051.078.15.224c.948 1.418 2.51 2.997 3.111 3.292.568-.286 2.127-1.866 3.13-3.314zm-7.226.348l-.18-.275C4.7 9.592 4.16 8.12 4.16 6.73 4.16 3.57 6.743 1 9.92 1c3.177 0 5.76 2.57 5.76 5.73 0 1.39-.54 2.862-1.47 4.337-.108.18-.229.364-.353.534-1.17 1.692-2.921 3.415-3.645 3.689l-.292.11-.292-.11c-.754-.285-2.516-2.002-3.652-3.7l-.153-.229z"/>
        <path fill-rule="nonzero" d="M8.9 6.77a1.1 1.1 0 1 1 2.202.002A1.1 1.1 0 0 1 8.9 6.77zm1 0a.1.1 0 0 0 .1.1.1.1 0 0 0 .1-.1.1.1 0 0 0-.1-.1.1.1 0 0 0-.1.1z"/>
        <rect width="16" height="1" x="2" y="18" rx=".5"/>
    </g>
</svg>
