<svg xmlns="http://www.w3.org/2000/svg" width="120" height="35" viewBox="0 0 120 35">
    <g fill="none" fill-rule="evenodd">
        <path fill="#F04432" d="M112.677 17.21h-3.623l3.325-4.753c.12-.165.22-.327.298-.463v5.216zm2.776 5.928v-3.423h1.455c.055-.408.083-.81.085-1.209v-.08a9.175 9.175 0 0 0-.089-1.216h-1.451V8.236h-2.892l-6.692 9.483a9.194 9.194 0 0 0-.045.81v.21c.004.318.025.644.065.976h6.788v3.423h2.776zM105.025 20.605h-6.827c.372-1.205 1.291-1.93 2.837-2.862 1.684-1.015 3.977-2.35 3.977-4.974 0-2.896-2.145-4.769-5.046-4.769a5.502 5.502 0 0 0-4.847 2.83c.37.265.747.498 1.135.7l.12.061c.399.2.826.375 1.28.524.2-.327.943-1.356 2.36-1.356 1.204 0 2.104.716 2.104 2.01 0 .88-.853 1.645-2.514 2.645-1.634.985-5.199 3.04-4.556 7.737h9.976a9.141 9.141 0 0 0 0-2.546"/>
        <path fill="#0D63C9" d="M67.495 23.138v-4.831c0-.733.078-1.341.245-1.857.577-1.816 2.019-2.461 3.082-2.461.29 0 .532.027.622.039l.035.004c.072-.459.11-.911.115-1.359v.058a9.297 9.297 0 0 0-.119-1.365 3.37 3.37 0 0 0-.493-.04c-1.542 0-2.943.915-3.612 2.48.006-.106.01-.221.01-.339v-2.104l-2.958-.001v11.776h3.073zM19.463 23.138v-4.831c0-.733.078-1.341.246-1.857.576-1.816 2.018-2.461 3.082-2.461.29 0 .532.027.621.039l.035.004c.073-.459.11-.911.116-1.359v.058a9.297 9.297 0 0 0-.12-1.365 3.369 3.369 0 0 0-.492-.04c-1.543 0-2.943.915-3.612 2.48.005-.106.01-.221.01-.339v-2.104l-2.959-.001v11.776h3.073zM44.219 20.798c-1.926 0-2.803-1.8-2.803-3.474 0-2.628 1.46-3.564 2.827-3.564 1.674 0 2.802 1.424 2.802 3.542 0 2.416-1.42 3.496-2.826 3.496zm-2.712 6.244v-4.316c0-.325-.014-.592-.026-.77.359.423 1.412 1.45 3.262 1.45 3.178 0 5.396-2.53 5.396-6.15 0-3.679-2.104-6.147-5.236-6.147-2.179 0-3.29 1.207-3.667 1.724.01-.142.02-.324.02-.525v-.946l-2.822.001v15.679h3.073zM8.898 20.798c-1.926 0-2.803-1.8-2.803-3.474 0-2.628 1.46-3.564 2.827-3.564 1.675 0 2.803 1.424 2.803 3.542 0 2.416-1.42 3.496-2.827 3.496zm-2.712 6.244v-4.316c0-.325-.013-.592-.026-.77.36.423 1.412 1.45 3.263 1.45 3.178 0 5.396-2.53 5.396-6.15 0-3.679-2.104-6.147-5.237-6.147-2.178 0-3.29 1.207-3.666 1.724.01-.142.02-.324.02-.525v-.945H3.113v15.679h3.073zM30.588 13.774c-1.843 0-3.236 1.497-3.236 3.484 0 1.986 1.393 3.483 3.236 3.483 1.835 0 3.218-1.497 3.218-3.483 0-1.987-1.383-3.484-3.218-3.484m0 9.632c-3.626 0-6.363-2.644-6.363-6.15 0-3.506 2.726-6.147 6.343-6.147 3.628 0 6.365 2.641 6.365 6.147 0 3.506-2.726 6.15-6.344 6.15M74.808 8.227v3.136h-1.49a9.164 9.164 0 0 0 0 2.67l1.423-.001V18.8c0 4.012 3.441 4.445 4.92 4.445.454 0 .766-.046.868-.064a9.146 9.146 0 0 0 .01-2.702l-.011.003s-.2.042-.505.042c-.825 0-2.209-.27-2.209-2.088v-4.404h2.2c.067-.455.1-.903.1-1.346 0-.429-.033-.87-.1-1.323h-2.2V8.227h-3.006zM90.537 11.362l-2.299 6.787c-.123.37-.238.84-.306 1.139-.068-.28-.201-.793-.344-1.185l-2.468-6.741H81.61l4.914 11.58-.372.868c-.383.908-1.075 1.428-1.9 1.428-.613 0-1.222-.449-1.23-.454l-.114-.085-.011.025a9.11 9.11 0 0 0-1.03 2.328l-.013.028-.008.018.075.053c.01.007 1.036.771 2.48.771 1.999 0 3.525-1.098 4.3-3.091l5.249-13.47h-3.414zM54.736 15.736c.295-1.396 1.287-2.225 2.67-2.225 1.275 0 2.134.87 2.208 2.225h-4.878zm2.739-4.627c-3.527 0-5.99 2.527-5.99 6.147 0 3.563 2.663 6.15 6.331 6.15a7.605 7.605 0 0 0 3.908-1.094 9.242 9.242 0 0 0 0-2.677c-.722.5-1.88 1.14-3.703 1.14-1.533 0-3.157-.892-3.386-2.886h8.002l.012-.122c.02-.229.064-.795.064-1.079 0-3.39-2.056-5.579-5.238-5.579z"/>
    </g>
</svg>
