<svg xmlns="http://www.w3.org/2000/svg" width="30" height="30" viewBox="0 0 30 30">
    <path fill="#FFF" fill-rule="nonzero" d="M25 23h-4.42v-6.68c0-1.748-.692-2.941-2.212-2.941-1.163 0-1.81.805-2.11 1.582-.114.278-.096.666-.096 1.054V23h-4.38s.057-11.832 0-12.907h4.38v2.026c.259-.886 1.658-2.15 3.89-2.15 2.771 0 4.948 1.856 4.948 5.854V23zM7.354 8.478h-.028C5.915 8.478 5 7.492 5 6.241 5 4.966 5.942 4 7.381 4c1.438 0 2.323.964 2.35 2.237 0 1.251-.912 2.241-2.377 2.241zm-1.85 1.615h3.899V23H5.504V10.093z"/>
</svg>
