<?xml version="1.0" encoding="utf-8"?>
<!-- Generator: Adobe Illustrator 21.1.0, SVG Export Plug-In . SVG Version: 6.00 Build 0)  -->
<svg version="1.1" id="Layer_1" xmlns="http://www.w3.org/2000/svg" xmlns:xlink="http://www.w3.org/1999/xlink" x="0px" y="0px"
	 viewBox="0 0 20 20" style="enable-background:new 0 0 20 20;" xml:space="preserve">
<style type="text/css">
	.st0{fill:#46494B;}
</style>
<title>svg-property-baths-grey</title>
<desc>Created with Sketch.</desc>
<rect x="4" y="12" class="st0" width="1" height="1"/>
<path class="st0" d="M19.5,10H19V5.5C19,4.1,17.9,3,16.5,3h-0.1C15.1,3,14,4.1,14,5.4V6h-0.5C13.2,6,13,6.2,13,6.5S13.2,7,13.5,7h2
	C15.8,7,16,6.8,16,6.5S15.8,6,15.5,6H15V5.4C15,4.6,15.6,4,16.4,4h0.1C17.3,4,18,4.7,18,5.5V10H0.5C0.2,10,0,10.2,0,10.5
	S0.2,11,0.5,11h0.6l0.6,4c0.2,1.1,1.1,2,2.3,2l-0.3,1h1L5,17H15l0.3,1h1L16,17c1.1,0,2.1-0.8,2.3-2l0.6-4h0.6c0.3,0,0.5-0.2,0.5-0.5
	S19.8,10,19.5,10z M17.3,14.9C17.2,15.5,16.7,16,16,16H4c-0.6,0-1.2-0.5-1.3-1.1L2.4,13H3v-1H2.3l-0.1-1h15.7L17.3,14.9z"/>
<rect x="6" y="12" class="st0" width="1" height="1"/>
<rect x="8" y="12" class="st0" width="1" height="1"/>
<rect x="10" y="12" class="st0" width="1" height="1"/>
<rect x="12" y="12" class="st0" width="1" height="1"/>
<rect x="14" y="12" class="st0" width="1" height="1"/>
<rect x="16" y="12" class="st0" width="1" height="1"/>
</svg>
