<svg xmlns="http://www.w3.org/2000/svg" width="24" height="24" viewBox="0 0 24 24">
    <g fill="#1B1F21" fill-rule="nonzero">
        <path d="M23.5 4h-3.8l.1-.4c.1-.2 0-.5-.3-.5H19l-.3 1h-3.1c-.4-.1-.6.1-.6.4 0 .3.2.5.5.5h2.8l-.5 1.6c-.3.8-1 1.4-1.9 1.4H8.2c-.9 0-1.7-.6-1.9-1.4L5.7 5h2.8c.3 0 .5-.2.5-.5S8.8 4 8.5 4H5.4l-.3-1h-.5c-.2 0-.4.2-.4.4v.1l.1.5H.5c-.3 0-.5.2-.5.5s.2.5.5.5h4.2l.6 1.9C5.7 8.2 6.9 9 8.2 9H9v1H8c-2.2 0-4 1.8-4 4v3.5c0 .3.2.5.5.5H5v-4c0-1.7 1.3-3 3-3h1.3c.3.6 1 1 1.7 1h2c.7 0 1.4-.4 1.7-1H16c1.7 0 3 1.3 3 3v2h-2v-.2c0-1.1-.9-1.9-2-1.9h-.1l-.2-.2c-.2-.4-.7-.7-1.2-.7h-3.1c-.5.1-.9.3-1.1.7l-.1.2H9c-1.1 0-2 .8-2 1.9v.2H5v1h2v2.1c0 1.1.9 1.9 2 1.9h6c1.1 0 2-.8 2-1.9V17h2v1h.5c.3 0 .5-.2.5-.5V14c0-2.2-1.8-4-4-4h-1V9h.8c1.3 0 2.4-.8 2.8-2.1l.7-1.9h4.2c.3 0 .5-.2.5-.5s-.2-.5-.5-.5zM14 10c0 .6-.4 1-1 1h-2c-.6 0-1-.4-1-1V9h4v1zm2 9.1c0 .5-.5.9-1 .9H9c-.5 0-1-.4-1-.9v-3.2c0-.5.5-.9 1-.9h.6l.5-.7c.1-.1.2-.2.4-.2h3c.2 0 .3.1.4.2l.5.7h.6c.5 0 1 .4 1 .9v3.2z"/>
        <path d="M12 15c-1.1 0-2 .9-2 2s.9 2 2 2 2-.9 2-2-.9-2-2-2zm0 3c-.6 0-1-.4-1-1s.4-1 1-1 1 .4 1 1-.4 1-1 1z"/>
    </g>
</svg>
