<svg xmlns="http://www.w3.org/2000/svg" width="15" height="15" viewBox="0 0 15 15">
    <g fill="#F66F26" fill-rule="nonzero">
        <path d="M7.5 14a6.5 6.5 0 1 0 0-13 6.5 6.5 0 0 0 0 13zm0 1a7.5 7.5 0 1 1 0-15 7.5 7.5 0 0 1 0 15z"/>
        <path d="M8.819 11.095c-.336.131-.603.233-.804.302-.2.069-.43.103-.696.103-.405 0-.722-.1-.948-.297a.958.958 0 0 1-.337-.755c0-.118.01-.239.026-.362.015-.125.043-.263.08-.42l.42-1.483c.037-.142.07-.276.095-.403a1.75 1.75 0 0 0 .037-.349c0-.187-.039-.321-.117-.394-.08-.076-.228-.112-.448-.112-.108 0-.22.017-.334.05a5.21 5.21 0 0 0-.293.096l.112-.457c.274-.112.537-.207.789-.286.25-.08.49-.121.711-.121.403 0 .716.099.933.293a.971.971 0 0 1 .328.759c0 .064-.007.179-.022.34-.015.162-.043.31-.084.448L7.85 9.526a4.252 4.252 0 0 0-.093.405c-.025.15-.038.267-.038.345 0 .196.043.332.131.403.086.071.24.105.457.105.101 0 .216-.017.345-.051a1.98 1.98 0 0 0 .278-.095l-.11.457zm-.075-6.002a.994.994 0 0 1-.703.271c-.274 0-.51-.09-.707-.271a.862.862 0 0 1-.293-.658c0-.256.1-.478.293-.661a1 1 0 0 1 .707-.274c.274 0 .509.09.703.274a.874.874 0 0 1 .293.661.862.862 0 0 1-.293.658z"/>
    </g>
</svg>
