<svg xmlns="http://www.w3.org/2000/svg" xmlns:xlink="http://www.w3.org/1999/xlink" width="22" height="22" viewBox="0 0 22 22">
    <defs>
        <circle id="a" cx="11" cy="11" r="10"/>
    </defs>
    <g fill="none" fill-rule="evenodd">
        <g>
            <use fill="#F66F26" xlink:href="#a"/>
            <circle cx="11" cy="11" r="10.5" stroke="#FFF"/>
        </g>
        <path fill="#FFF" fill-rule="nonzero" d="M4 6v1h2c.215 0 .398.14.469.344l.976 6.332a1.51 1.51 0 0 0 1.492 1.332h6.106v-1H8.938a.493.493 0 0 1-.497-.442l-.062-.558h5.89c.711 0 .824-.245 1.105-.94l1.319-4.06h-8.99l-.258-.906-.015-.047A1.502 1.502 0 0 0 6 6H4zm10 9.508c-.55 0-1 .449-1 1 0 .55.45 1 1 1s1-.45 1-1c0-.551-.45-1-1-1zm-5.5 0c-.55 0-1 .449-1 1 0 .55.45 1 1 1s1-.45 1-1c0-.551-.45-1-1-1z"/>
    </g>
</svg>
