<svg xmlns="http://www.w3.org/2000/svg" width="30" height="30" viewBox="0 0 30 30">
    <path fill="#989A9B" fill-rule="nonzero" d="M25.764 10.218s-.215-1.474-.873-2.122c-.834-.851-1.769-.856-2.198-.905-3.07-.217-7.68-.19-7.68-.19s-4.61-.027-7.681.19c-.429.05-1.364.054-2.198.905-.657.648-.873 2.122-.873 2.122s-.22 1.73-.261 3.461v1.623a38.75 38.75 0 0 0 .261 3.46s.213 1.475.873 2.123c.834.851 1.932.825 2.42.914 1.725.16 7.264.199 7.456.201.003 0 4.615.007 7.686-.21.428-.05 1.363-.054 2.197-.905.658-.648.873-2.123.873-2.123s.22-1.731.234-3.46v-1.623c-.016-1.731-.236-3.46-.236-3.46zm-12.992 7.278v-6.033l5.898 3.016-5.898 3.017z"/>
</svg>
