<svg xmlns="http://www.w3.org/2000/svg" xmlns:xlink="http://www.w3.org/1999/xlink" width="24" height="24" viewBox="0 0 24 24">
    <defs>
        <circle id="a" cx="10" cy="10" r="10"/>
    </defs>
    <g fill="none" fill-rule="evenodd">
        <g transform="translate(2 2)">
            <mask id="b" fill="#fff">
                <use xlink:href="#a"/>
            </mask>
            <path fill="#1B1F21" fill-rule="nonzero" d="M10.003-1C3.935-1-.994 3.93-.994 10c0 .122.006.242.01.363a.478.478 0 0 0 .01.277C-.642 16.412 4.15 21 10.003 21c3.37 0 6.387-1.522 8.406-3.915a.478.478 0 0 0 .157-.191 10.96 10.96 0 0 0 2.177-4.533A11.026 11.026 0 0 0 21 10c0-6.07-4.93-11-10.997-11zm0 .957c2.596 0 4.951.99 6.732 2.603l-.18.193-2.576-.86a.478.478 0 0 0-.15-.023h-1.435a.478.478 0 0 0-.478.478v1.435c0 .206.131.388.326.454l1.435.478.014.004.305.092.788 1.261v1.154c0 .097.03.192.085.272l1.913 2.774a.478.478 0 0 0 .847-.12l.369-1.109h.02l.856.428a.478.478 0 0 0 .641-.214l.408-.816a10.149 10.149 0 0 1 .07 2.574l-.449-.738a.478.478 0 0 0-.553-.207l-.908.287a.478.478 0 0 0-.306.292l-.106.294-.287.078a.478.478 0 0 0-.348.527l.191 1.387c.01.075.039.147.082.21l.193.275-.134.374-1.348 1.908a.478.478 0 0 0-.082.2l-.192 1.196a.478.478 0 0 0 .589.54l.252-.063a10.033 10.033 0 0 1-16.6-6.922l.737-.738.786-.393h.11l.813 1.222a.478.478 0 0 0 .736.072l1.022-1.022.633.95a.478.478 0 0 0 .796 0l.956-1.435a.478.478 0 0 0 .066-.15l.478-1.913a.478.478 0 0 0-.126-.454l-.065-.065.949-.633a.478.478 0 0 0 .213-.398v-.957a.478.478 0 0 0-.14-.338l-.01-.01.055-.026.713.712A.478.478 0 0 0 9.5 4.89l.442-1.327.876-.877a.478.478 0 0 0-.124-.766l-.956-.478a.478.478 0 0 0-.33-.037l-3.659.916-.848-.405a.478.478 0 0 0-.31-.035l-.696.156a9.987 9.987 0 0 1 6.107-2.08zm-.534 2.42l.204.103-.486.486a.478.478 0 0 0-.116.187l-.233.7-.41-.409a.478.478 0 0 0-.551-.09l-.956.48a.478.478 0 0 0-.125.765l.338.338v.503l-1.221.814a.478.478 0 0 0-.073.736l.287.287-.392 1.57-.513.77-.559-.839a.478.478 0 0 0-.735-.073L2.906 9.727l-.633-.949a.478.478 0 0 0-.398-.213h-.478a.478.478 0 0 0-.214.05l-.956.479a.478.478 0 0 0-.124.09l-.113.113A9.99 9.99 0 0 1 2.507 3.33l2.132-.48.856.408c.1.047.213.059.32.032l3.654-.913zm3.403.45h.879l2.795.931c.178.06.374.009.501-.129l.366-.394a10.005 10.005 0 0 1 2.23 3.952l-.46.613a.478.478 0 0 0-.045.073l-.264.529-.529-.265a.478.478 0 0 0-.214-.05h-.478a.478.478 0 0 0-.454.327l-.174.525-1.284-1.862V5.935a.478.478 0 0 0-.073-.253l-.956-1.531a.478.478 0 0 0-.268-.205l-.471-.141-1.101-.367v-.612zm-6.225 7.647a.478.478 0 0 0-.329.144l-.478.479a.478.478 0 1 0 .676.676l.478-.478a.478.478 0 0 0-.347-.821zm-2.386.478a.478.478 0 0 0-.333.82l.956.957a.478.478 0 1 0 .676-.676l-.956-.956a.478.478 0 0 0-.343-.145zm14.661.143l.475.78c.012.02.026.04.04.058l.333.399a9.996 9.996 0 0 1-1.931 3.943l-1.033.26.059-.372 1.322-1.87a.478.478 0 0 0 .06-.115l.24-.67a.478.478 0 0 0-.06-.435l-.268-.383-.118-.856.12-.033c.15-.04.271-.152.324-.298l.11-.305.327-.103zm-9.618.1a.478.478 0 0 0-.281.08l-1.96 1.291a.478.478 0 0 0-.213.44l.142 1.627c.011.12.067.233.157.314l.478.43c.147.132.358.16.534.073l.99-.496.279.07.913.87a.478.478 0 0 0 .445.118l.574-.144a.478.478 0 0 0 .309-.244l.67-1.29a.478.478 0 0 0 .007-.426l-.43-.909a.478.478 0 0 0-.015-.026l-.764-1.387a.478.478 0 0 0-.809-.045l-.229.323-.46-.51a.478.478 0 0 0-.337-.158zM9.206 12.3l.585.65a.478.478 0 0 0 .746-.044l.134-.189.388.706.323.68-.46.89-.11.027-.814-.775a.478.478 0 0 0-.213-.118l-.575-.143a.478.478 0 0 0-.33.036l-.855.428-.096-.087-.102-1.153 1.379-.908z" mask="url(#b)"/>
        </g>
        <path fill="#1B1F21" fill-rule="nonzero" d="M12 22c5.523 0 10-4.477 10-10S17.523 2 12 2 2 6.477 2 12s4.477 10 10 10zm0 1C5.925 23 1 18.075 1 12S5.925 1 12 1s11 4.925 11 11-4.925 11-11 11z"/>
    </g>
</svg>
