<svg xmlns="http://www.w3.org/2000/svg" width="24" height="24" viewBox="0 0 24 24">
    <g fill="#1B1F21" fill-rule="nonzero">
        <path d="M9.5 7h2c.3 0 .5.2.5.5s-.2.5-.5.5h-2c-.3 0-.5-.2-.5-.5s.2-.5.5-.5zM9.5 11h8c.3 0 .5.2.5.5s-.2.5-.5.5h-8c-.3 0-.5-.2-.5-.5s.2-.5.5-.5zM13.5 7h4c.3 0 .5.2.5.5s-.2.5-.5.5h-4c-.3 0-.5-.2-.5-.5s.2-.5.5-.5zM7 6c-.1 0-.3 0-.4.1L5 7.8l-.6-.7c-.2-.1-.6-.1-.8 0-.2.1-.2.5 0 .7l1 1c.1.2.3.2.4.2.1 0 .3 0 .4-.1l2-2c.2-.2.2-.5 0-.7C7.3 6 7.1 6 7 6zM7 10c-.1 0-.3 0-.4.1L5 11.8l-.6-.6c-.2-.2-.5-.2-.7 0-.2.2-.2.5 0 .7l1 1c0 .1.2.1.3.1.1 0 .3 0 .4-.1l2-2c.2-.2.2-.5 0-.7-.1-.2-.3-.2-.4-.2zM7 14c-.1 0-.3 0-.4.1L5 15.8l-.6-.6c-.2-.2-.5-.2-.7 0-.2.2-.2.5 0 .7l1 1c0 .1.2.1.3.1.1 0 .3 0 .4-.1l2-2c.2-.2.2-.5 0-.7-.1-.2-.3-.2-.4-.2z"/>
        <path d="M22.4 17.8c-.8-1-1.6-1.7-2.4-2.3V3c0-.6-.4-1-1-1H2c-.6 0-1 .4-1 1v16c0 .6.4 1 1 1h8c-.3-.3-.5-.6-.8-.9 4.3 5.2 8.9 5.2 13.1 0l.5-.6-.4-.7zM2 3h17v1H2V3zm6.7 15.5l.4.5H2V5h17v9.9c-2.3-1.3-4.7-1.2-7.1.4-.1-.2-.3-.3-.5-.3h-2c-.2 0-.4.2-.4.5s.2.5.5.5H11c-.6.5-1.2 1.1-1.8 1.8l-.5.7zm7.1 3.5c-1.9 0-3.9-1.2-5.8-3.5 1.9-2.3 3.9-3.5 5.8-3.5s3.9 1.2 5.8 3.5c-1.9 2.3-3.9 3.5-5.8 3.5z"/>
        <path d="M16 16c-1.4 0-2.5 1.1-2.5 2.5S14.6 21 16 21s2.5-1.1 2.5-2.5S17.4 16 16 16zm0 4c-.8 0-1.5-.7-1.5-1.5S15.2 17 16 17s1.5.7 1.5 1.5S16.8 20 16 20z"/>
    </g>
</svg>
