<svg xmlns="http://www.w3.org/2000/svg" width="20" height="20" viewBox="0 0 20 20">
    <g fill="#46494B" fill-rule="evenodd">
        <path fill-rule="nonzero" d="M5 13v3h10v-3H5zm0-1h10a1 1 0 0 1 1 1v3a1 1 0 0 1-1 1H5a1 1 0 0 1-1-1v-3a1 1 0 0 1 1-1z"/>
        <rect width="1" height="2" x="5" y="16" rx=".5"/>
        <rect width="1" height="2" x="14" y="16" rx=".5"/>
        <path fill-rule="nonzero" d="M14.885 12l-.764-1.545a.96.96 0 0 0-.302-.356.534.534 0 0 0-.31-.099H6.491a.534.534 0 0 0-.31.1.96.96 0 0 0-.303.355L5.115 12h9.77zM4 13v-.766a1 1 0 0 1 .103-.443l.88-1.779a1.96 1.96 0 0 1 .617-.726C5.86 9.1 6.172 9 6.492 9h7.016c.32 0 .632.1.892.286.263.187.475.437.618.726l.879 1.779a1 1 0 0 1 .103.443V13H4z"/>
        <rect width="2" height="1" x="3" y="12" rx=".5"/>
        <rect width="2" height="1" x="15" y="12" rx=".5"/>
        <rect width="1" height="1" x="6" y="14" rx=".5"/>
        <rect width="1" height="1" x="13" y="14" rx=".5"/>
        <path d="M8 14h4v1H8z"/>
        <path fill-rule="nonzero" d="M1 8.068l-.548.892L1 8.683v-.615zm9.452-4.176h-.904l.452.23.452-.23zm9.096 5.068L19 8.068v.615l.548.277zM1 8.683l9-4.562 9 4.562V18h1V8.068L10 3 0 8.068V18h1V8.683zm18-.615l.548.892L19 8.683v-.615zm-8.548-4.176h-.904l.452.23.452-.23zM1 8.068l-.548.892L1 8.683v-.615zM19 18h1V8.068L10 3 0 8.068V18h1V8.683l9-4.562 9 4.562V18z"/>
    </g>
</svg>
